<?xml version="1.0" encoding="utf-8"?>
<!-- Generator: Adobe Illustrator 15.1.0, SVG Export Plug-In . SVG Version: 6.00 Build 0)  -->
<!DOCTYPE svg PUBLIC "-//W3C//DTD SVG 1.1//EN" "http://www.w3.org/Graphics/SVG/1.1/DTD/svg11.dtd">
<svg version="1.1" id="Layer_1" xmlns="http://www.w3.org/2000/svg" xmlns:xlink="http://www.w3.org/1999/xlink" x="0px" y="0px"
	 width="20px" height="14px" viewBox="0 0 20 14" enable-background="new 0 0 20 14" xml:space="preserve">
<g>
	<g id="Layer_3">
		<rect x="0.054" y="0.03" fill="#00AFCA" width="20" height="14"/>
	</g>
	<g id="Layer_2">
		<ellipse fill="#FEC50C" cx="11.127" cy="5.91" rx="1.793" ry="1.884"/>
		<rect x="0.881" y="0.915" fill="#FEC50C" width="1.528" height="12.304"/>
		<line fill="none" x1="0.054" y1="0.03" x2="20.053" y2="0.03"/>
		<ellipse fill="#FEC50C" cx="11.127" cy="5.91" rx="1.793" ry="1.884"/>
		<ellipse fill="#FEC50C" cx="11.127" cy="5.91" rx="1.793" ry="1.884"/>
		<path fill="#FEC50C" d="M12.883,10.475c-0.098,0.062-0.17-0.047-0.252-0.08c-0.057,0.033-0.062,0.145-0.117,0.195
			c-0.064,0.077-0.143-0.021-0.137-0.098c-0.076,0.068-0.115,0.224-0.24,0.201c-0.061-0.049-0.104-0.155-0.148-0.034
			c-0.037,0.059-0.135,0.143-0.186,0.054c-0.016-0.079-0.053-0.172-0.094-0.047c-0.029,0.089-0.119,0.154-0.205,0.115
			c-0.049-0.041,0.037-0.192-0.023-0.182c-0.09,0.062-0.143,0.219-0.27,0.207c-0.049-0.059,0.029-0.156-0.023-0.222
			c-0.064,0.086-0.135,0.212-0.244,0.222c-0.055-0.046,0.002-0.176-0.033-0.195c-0.111,0.072-0.229,0.199-0.373,0.158
			c0.055-0.223,0.287-0.299,0.48-0.316c0.334-0.043,0.688,0.036,1.008-0.092c0.053-0.032,0.18-0.079,0.135-0.156
			c-0.041-0.061,0.103-0.037,0.117-0.107c-0.01-0.091,0.064-0.078,0.137-0.086c0.326-0.015,0.646,0.057,0.971,0.069
			c0.023,0.165-0.149,0.282-0.29,0.229c-0.068,0.013-0.171-0.162-0.148-0.035C12.932,10.342,12.939,10.43,12.883,10.475
			 M10.117,10.135c0.074,0.072,0.127-0.014,0.197-0.045c0.236-0.085,0.443-0.234,0.646-0.383c0.123-0.105,0.229-0.245,0.395-0.28
			c0.322-0.102,0.664-0.09,0.986-0.184c0.246-0.354,0.666-0.479,1.016-0.685c0.078-0.025,0.109-0.094,0.135-0.168
			c0.133-0.223,0.314-0.418,0.531-0.553c0.102-0.059,0.223-0.093,0.338-0.064c-0.008,0.144-0.088,0.271-0.182,0.371
			c0.078-0.002,0.145-0.054,0.223-0.051c0.027,0.147-0.125,0.227-0.205,0.317c0.045,0.011,0.217,0.024,0.123,0.071
			c-0.121,0.088-0.258,0.147-0.367,0.25c0.103,0.02,0.113,0.041,0.01,0.08c-0.057,0.041-0.166,0.056-0.176,0.133
			c0.078,0.051-0.035,0.1-0.08,0.115c-0.082,0.021-0.17,0.06-0.059,0.125c-0.043,0.065-0.133,0.08-0.205,0.073
			c0.021,0.075,0.055,0.159-0.039,0.192c-0.209,0.166-0.453,0.285-0.715,0.312c0.328,0.026,0.664-0.037,0.943-0.225
			c0.037-0.045,0.229-0.096,0.123-0.133c-0.051-0.022-0.16-0.047-0.168-0.088c0.152-0.1,0.342-0.063,0.506-0.123
			c0.004-0.055-0.125-0.039-0.172-0.051c-0.113-0.011-0.107-0.041,0.002-0.053c0.139-0.039,0.297-0.047,0.414-0.142
			c-0.096-0.048-0.215-0.007-0.316-0.043c0.172-0.079,0.375-0.089,0.529-0.206c0.07-0.082-0.09-0.057-0.137-0.055
			c-0.097,0.018-0.142-0.03-0.031-0.072c0.186-0.145,0.418-0.236,0.549-0.443c0.031-0.047,0.072-0.188-0.025-0.137
			c-0.129,0.046-0.242,0.197-0.391,0.15c0.291-0.235,0.566-0.504,0.764-0.832c0.01-0.094-0.131-0.104-0.166-0.029
			c-0.188,0.188-0.355,0.409-0.594,0.528c0.229-0.231,0.418-0.505,0.582-0.79c0.035-0.085,0.131-0.187,0.078-0.28
			c-0.082-0.072-0.186-0.006-0.23,0.08c-0.145,0.199-0.254,0.431-0.439,0.592c0.162-0.326,0.332-0.674,0.337-1.051
			c-0.002-0.077-0.017-0.191-0.117-0.177c-0.078,0.015-0.062,0.14-0.092,0.203c-0.072,0.257-0.107,0.536-0.255,0.761
			c0.033-0.209,0.093-0.427,0.048-0.638c-0.021-0.095-0.166-0.054-0.147,0.04c-0.175,0.922-0.763,1.728-1.533,2.194
			c-0.353,0.21-0.746,0.345-1.148,0.405c-0.107,0.024-0.225,0.011-0.326,0.05c-0.25,0.2-0.402,0.537-0.718,0.644
			c-0.142,0.073-0.326,0.088-0.429,0.228C10.119,10.096,10.117,10.115,10.117,10.135"/>
		<path fill="#FEC50C" d="M11.064,9.199c-0.047,0.089-0.074,0.191-0.135,0.271c-0.18-0.174-0.443-0.168-0.672-0.18
			c-0.188-0.012-0.395-0.027-0.541-0.17C9.563,8.989,9.438,8.816,9.267,8.71C9.109,8.665,8.952,8.609,8.825,8.496
			C8.555,8.266,8.4,7.923,8.137,7.686c-0.05-0.053-0.109-0.094-0.166-0.138C7.918,7.562,7.941,7.684,7.877,7.622
			C7.841,7.596,7.752,7.593,7.745,7.63c0.08,0.111,0.161,0.239,0.172,0.382c-0.055,0.006-0.152-0.013-0.18,0.01
			C7.811,8.136,7.902,8.236,8.01,8.318C7.958,8.327,7.857,8.322,7.838,8.344C7.943,8.436,8.058,8.525,8.195,8.55
			c0.028,0.039-0.042,0.114,0.017,0.147c0.034,0.015,0.146,0.039,0.069,0.08C8.229,8.814,8.249,8.9,8.315,8.898
			C8.357,8.923,8.455,8.93,8.462,8.968C8.424,9.009,8.307,9.057,8.407,9.096C8.5,9.15,8.607,9.186,8.715,9.189
			C8.661,9.236,8.595,9.264,8.54,9.309c0.247,0.151,0.521,0.252,0.792,0.35C9.439,9.695,9.549,9.73,9.661,9.753
			c-0.325-0.021-0.639-0.12-0.936-0.259c-0.152-0.071-0.306-0.141-0.464-0.2c0.069-0.038,0.148-0.047,0.221-0.08
			C8.333,9.184,8.17,9.173,8.04,9.087c0.021-0.037,0.096-0.039,0.139-0.06c0.078-0.02,0.127-0.043,0.016-0.051
			C8.083,8.945,7.954,8.96,7.854,8.889c0.007-0.041,0.109-0.027,0.151-0.046c0.053-0.01,0.112-0.018,0.154-0.055
			C7.987,8.713,7.762,8.766,7.625,8.605C7.595,8.544,7.724,8.594,7.759,8.583c0.093,0,0.192,0.031,0.281-0.008
			C7.788,8.458,7.519,8.35,7.325,8.134C7.304,8.1,7.24,8.005,7.292,7.993c0.15,0.021,0.258,0.192,0.418,0.166
			C7.73,8.129,7.617,8.08,7.588,8.036c-0.234-0.21-0.461-0.438-0.625-0.715C6.953,7.229,7.09,7.216,7.127,7.287
			c0.178,0.181,0.34,0.393,0.562,0.515c0.078,0.04-0.045-0.048-0.062-0.079c-0.205-0.25-0.4-0.516-0.545-0.812
			C7.058,6.858,7.015,6.762,7.091,6.733c0.077-0.041,0.153,0.015,0.192,0.084c0.151,0.201,0.262,0.438,0.451,0.605
			C7.574,7.096,7.402,6.751,7.398,6.375C7.402,6.302,7.407,6.192,7.5,6.194c0.08-0.012,0.066,0.094,0.093,0.145
			c0.078,0.277,0.112,0.576,0.269,0.82C7.827,6.954,7.775,6.743,7.811,6.534c0.008-0.068,0.081-0.089,0.13-0.048
			c0.038,0.1,0.046,0.223,0.082,0.329c0.2,0.722,0.65,1.355,1.238,1.781c0.484,0.35,1.059,0.557,1.644,0.594
			C10.957,9.193,11.012,9.195,11.064,9.199"/>
	</g>
</g>
</svg>
