<?xml version="1.0" encoding="utf-8"?>
<!-- Generator: Adobe Illustrator 15.1.0, SVG Export Plug-In . SVG Version: 6.00 Build 0)  -->
<!DOCTYPE svg PUBLIC "-//W3C//DTD SVG 1.1//EN" "http://www.w3.org/Graphics/SVG/1.1/DTD/svg11.dtd">
<svg version="1.1" id="Layer_1" xmlns="http://www.w3.org/2000/svg" xmlns:xlink="http://www.w3.org/1999/xlink" x="0px" y="0px"
	 width="20px" height="14px" viewBox="0 0 20 14" enable-background="new 0 0 20 14" xml:space="preserve">
<g>
	<path fill="#FF9933" d="M0,0h20v14H0V0z"/>
	<path fill="#FFFFFF" d="M0,4.667h20v4.667H0V4.667z"/>
	<path fill="#128807" d="M0,9.333h20V14H0V9.333z"/>
	<path d="M11.778,7c0,1.03-0.796,1.867-1.778,1.867C9.018,8.867,8.222,8.031,8.222,7S9.018,5.133,10,5.133
		C10.982,5.133,11.778,5.969,11.778,7z"/>
	<path fill="#FFFFFF" d="M11.555,7c0,0.902-0.695,1.633-1.555,1.633S8.445,7.902,8.445,7S9.141,5.367,10,5.367
		S11.555,6.098,11.555,7z"/>
	<path d="M10.312,7c0,0.18-0.14,0.326-0.312,0.326S9.688,7.181,9.688,7c0-0.18,0.14-0.326,0.312-0.326S10.312,6.819,10.312,7z"/>
</g>
</svg>
