<?xml version="1.0" encoding="utf-8"?>
<!-- Generator: Adobe Illustrator 15.1.0, SVG Export Plug-In . SVG Version: 6.00 Build 0)  -->
<!DOCTYPE svg PUBLIC "-//W3C//DTD SVG 1.1//EN" "http://www.w3.org/Graphics/SVG/1.1/DTD/svg11.dtd">
<svg version="1.1"
	 id="Layer_1" inkscape:version="0.45.1" sodipodi:docbase="F:\Bubini dokumenti\ustavni-zakoni za provedbu\Slovenija" inkscape:output_extension="org.inkscape.output.svg.inkscape" xmlns:rdf="http://www.w3.org/1999/02/22-rdf-syntax-ns#" xmlns:cc="http://web.resource.org/cc/" xmlns:dc="http://purl.org/dc/elements/1.1/" xmlns:sodipodi="http://sodipodi.sourceforge.net/DTD/sodipodi-0.dtd" xmlns:svg="http://www.w3.org/2000/svg" sodipodi:version="0.32" sodipodi:docname="Civil_Ensign_of_Slovenia.svg" xmlns:inkscape="http://www.inkscape.org/namespaces/inkscape"
	 xmlns="http://www.w3.org/2000/svg" xmlns:xlink="http://www.w3.org/1999/xlink" x="0px" y="0px" width="20px" height="14px"
	 viewBox="440 293 20 14" enable-background="new 440 293 20 14" xml:space="preserve">
<sodipodi:namedview  borderopacity="1.0" objecttolerance="10.0" id="base" bordercolor="#666666" inkscape:cx="371.11321" inkscape:zoom="2" pagecolor="#ffffff" gridtolerance="10.0" guidetolerance="10.0" inkscape:cy="407.56748" inkscape:pageshadow="2" inkscape:pageopacity="0.0" inkscape:window-x="0" inkscape:window-y="26" inkscape:current-layer="Layer_1" inkscape:window-width="1280" inkscape:window-height="736">
	</sodipodi:namedview>
<rect id="rect3212" x="440" y="293" fill="#FFFFFF" width="20" height="14"/>
<rect id="rect6123" x="440" y="302.334" fill="#ED1C24" width="20" height="4.666"/>
<rect id="rect4183" x="440" y="297.667" fill="#005DA4" width="20" height="4.667"/>
<path id="path13" fill="#ED1C24" d="M443.943,295.691c-0.041,0.019-0.082,0.039-0.122,0.059l0.127,2.117
	c0.035,0.577,0.269,1.124,0.66,1.535c0.268,0.281,0.596,0.485,0.953,0.597l0,0c0.356-0.112,0.684-0.316,0.952-0.597
	c0.392-0.412,0.625-0.958,0.66-1.535l0.127-2.117c-0.041-0.021-0.081-0.04-0.122-0.059l0,0l-0.13,2.167
	c-0.033,0.546-0.254,1.062-0.624,1.451c-0.244,0.256-0.541,0.444-0.863,0.553l0,0c-0.323-0.108-0.62-0.296-0.864-0.553
	c-0.37-0.389-0.591-0.905-0.624-1.451L443.943,295.691L443.943,295.691"/>
<path id="path15" fill="#005DA4" d="M447.178,295.691c-0.505-0.234-1.055-0.358-1.618-0.358s-1.113,0.124-1.618,0.358l0.13,2.167
	c0.033,0.546,0.254,1.062,0.624,1.451c0.244,0.256,0.541,0.444,0.864,0.553l0,0c0.323-0.108,0.619-0.296,0.863-0.553
	c0.37-0.389,0.591-0.905,0.624-1.451"/>
<polyline id="polyline17" fill="#FFDD00" points="445.658,296.347 445.73,296.245 445.61,296.258 445.561,296.142 445.511,296.258 
	445.391,296.245 445.463,296.347 445.391,296.45 445.511,296.437 445.561,296.553 445.61,296.437 445.73,296.45 "/>
<polyline id="polyline19" fill="#FFDD00" points="445.202,295.708 445.273,295.605 445.153,295.619 445.104,295.502 
	445.055,295.619 444.934,295.605 445.006,295.708 444.934,295.81 445.055,295.797 445.104,295.913 445.153,295.797 445.273,295.81 
	"/>
<polyline id="polyline21" fill="#FFDD00" points="446.115,295.708 446.187,295.605 446.066,295.619 446.017,295.502 
	445.969,295.619 445.848,295.605 445.92,295.708 445.848,295.81 445.969,295.797 446.017,295.913 446.066,295.797 446.187,295.81 
	"/>
<path id="path23" fill="#FFFFFF" d="M446.865,298.174l-0.652-0.914l-0.261,0.365l-0.391-0.822l-0.392,0.822l-0.261-0.365
	l-0.652,0.914c0,0.121,0.046,0.237,0.127,0.323c0.082,0.086,0.192,0.134,0.308,0.134c0.077,0,0.152-0.021,0.217-0.062
	c0,0,0,0.001,0,0.001c0.033-0.02,0.068-0.036,0.105-0.046c0.111-0.032,0.23-0.015,0.33,0.045c0.067,0.041,0.142,0.062,0.218,0.062h0
	c0.076,0,0.151-0.021,0.218-0.062c0.1-0.06,0.219-0.077,0.33-0.045c0.037,0.01,0.072,0.026,0.105,0.046c0,0,0-0.001,0-0.001
	c0.065,0.04,0.141,0.062,0.217,0.062c0.116,0,0.226-0.048,0.308-0.134C446.82,298.412,446.865,298.295,446.865,298.174"/>
<path id="path25" fill="#FFFFFF" d="M444.41,298.67c0.03,0.062,0.063,0.124,0.099,0.183l0,0c0.092,0.044,0.196,0.054,0.294,0.026
	c0.037-0.01,0.072-0.026,0.105-0.046c0,0,0,0,0,0c0.065-0.04,0.141-0.061,0.218-0.061c0,0,0,0,0,0c0.076,0,0.15,0.021,0.217,0.061
	c0.1,0.061,0.219,0.077,0.33,0.046c0.037-0.01,0.072-0.026,0.105-0.046c0,0,0,0,0,0c0.065-0.04,0.141-0.061,0.218-0.061h0
	c0.076,0,0.151,0.021,0.218,0.061c0.1,0.061,0.219,0.077,0.33,0.046c0.024-0.007,0.047-0.016,0.069-0.026l0,0
	c0.036-0.06,0.069-0.121,0.099-0.183l0,0c-0.022,0.009-0.043,0.02-0.063,0.032c0,0,0,0,0,0c-0.033,0.02-0.068,0.035-0.105,0.046
	c-0.111,0.031-0.23,0.015-0.33-0.046c-0.067-0.041-0.142-0.062-0.218-0.062h0c-0.077,0-0.152,0.022-0.218,0.062c0,0,0,0,0,0
	c-0.033,0.02-0.068,0.035-0.105,0.046c-0.111,0.031-0.23,0.015-0.33-0.046c-0.066-0.041-0.142-0.062-0.217-0.062c0,0,0,0,0,0
	c-0.077,0-0.152,0.022-0.218,0.062c0,0,0,0,0,0c-0.033,0.02-0.068,0.035-0.105,0.046c-0.111,0.031-0.23,0.015-0.33-0.046
	C444.453,298.689,444.432,298.679,444.41,298.67L444.41,298.67"/>
<path id="path27" fill="#FFFFFF" d="M446.5,299.021c-0.051,0.068-0.105,0.133-0.165,0.195c-0.22,0.231-0.485,0.404-0.774,0.507l0,0
	c-0.289-0.104-0.555-0.276-0.775-0.507c-0.059-0.062-0.114-0.127-0.165-0.195l0,0c0.06,0.011,0.122,0.007,0.182-0.01
	c0.037-0.01,0.072-0.025,0.105-0.045c0,0,0,0,0,0c0.065-0.04,0.141-0.061,0.218-0.061c0,0,0,0,0,0c0.076,0,0.15,0.021,0.217,0.061
	c0.1,0.061,0.219,0.077,0.33,0.045c0.037-0.01,0.072-0.025,0.105-0.045c0,0,0,0,0,0c0.065-0.04,0.141-0.061,0.217-0.061c0,0,0,0,0,0
	c0.076,0,0.151,0.021,0.218,0.061C446.3,299.018,446.402,299.038,446.5,299.021L446.5,299.021"/>
</svg>
