<?xml version="1.0" encoding="utf-8"?>
<!-- Generator: Adobe Illustrator 15.1.0, SVG Export Plug-In . SVG Version: 6.00 Build 0)  -->
<!DOCTYPE svg PUBLIC "-//W3C//DTD SVG 1.1//EN" "http://www.w3.org/Graphics/SVG/1.1/DTD/svg11.dtd">
<svg version="1.1"
	 id="svg557" inkscape:version="0.45.1" sodipodi:docbase="C:\Documents and Settings\Nomen Nescio\My Documents\My Pictures\pennants" inkscape:output_extension="org.inkscape.output.svg.inkscape" xmlns:rdf="http://www.w3.org/1999/02/22-rdf-syntax-ns#" xmlns:cc="http://web.resource.org/cc/" xmlns:dc="http://purl.org/dc/elements/1.1/" xmlns:sodipodi="http://sodipodi.sourceforge.net/DTD/sodipodi-0.dtd" xmlns:svg="http://www.w3.org/2000/svg" sodipodi:version="0.32" sodipodi:docname="Flag_of_Croatia_for_discussion.svg" xmlns:inkscape="http://www.inkscape.org/namespaces/inkscape"
	 xmlns="http://www.w3.org/2000/svg" xmlns:xlink="http://www.w3.org/1999/xlink" x="0px" y="0px" width="20px" height="14px"
	 viewBox="490 293 20 14" enable-background="new 490 293 20 14" xml:space="preserve">
<g>
	
		<sodipodi:namedview  id="base" inkscape:cx="601.28118" inkscape:zoom="1" inkscape:cy="266.41174" inkscape:window-x="0" inkscape:window-y="19" inkscape:current-layer="svg557" inkscape:window-width="1280" inkscape:window-height="736">
		</sodipodi:namedview>
	<g id="g4544">
		<rect id="rect675" x="490" y="297.667" fill="#FFFFFF" width="20" height="4.667"/>
		<rect id="rect714" x="490" y="302.333" fill="#0051BA" width="20" height="4.667"/>
		<rect id="rect713" x="490" y="293" fill="#E61717" width="20" height="4.667"/>
	</g>
	<g id="g4549" transform="translate(50.000728,-0.2251572)">
		<g id="g2527" transform="matrix(0.920341,0,0,0.92034,-148.2223,5.891141)">
			<g>
				<path id="path3501_1_" fill="#FFFFFF" d="M647.41,317.202c0.8-0.333,1.688-0.511,2.555-0.515
					c0.867-0.002,1.752,0.156,2.626,0.522l0.65-1.532l-0.457-0.929c0,0-0.815,0.39-0.822,0.39c-0.006,0-0.575-0.729-0.575-0.729
					l-0.73,0.514l-0.685-0.611l-0.645,0.602l-0.753-0.508l-0.55,0.761l-0.823-0.411l-0.441,0.921L647.41,317.202z"/>
				<path fill="#E61717" d="M652.6,317.236l-0.016-0.006c-0.826-0.345-1.7-0.52-2.599-0.52h-0.021
					c-0.865,0.003-1.747,0.18-2.549,0.513l-0.016,0.007l-0.662-1.551l0.454-0.948l0.826,0.412l0.551-0.763l0.755,0.51l0.646-0.604
					l0.687,0.613l0.732-0.516l0.011,0.014c0.207,0.265,0.514,0.657,0.566,0.719c0.08-0.036,0.604-0.286,0.812-0.385l0.015-0.007
					l0.471,0.956l-0.005,0.011L652.6,317.236z M649.985,316.666c0.897,0,1.77,0.173,2.595,0.516l0.639-1.504l-0.443-0.902
					c-0.804,0.385-0.81,0.385-0.815,0.385c-0.011,0-0.015,0-0.578-0.724l-0.728,0.513l-0.684-0.61l-0.644,0.601l-0.75-0.506
					l-0.548,0.759l-0.821-0.409l-0.428,0.893l0.638,1.495c0.802-0.331,1.682-0.506,2.546-0.509H649.985z"/>
			</g>
			<g>
				<path id="path3503_1_" fill="#0051BA" d="M651.58,316.777l0.372-1.537l0.798-0.377l0.42,0.823l-0.603,1.44
					C652.221,316.964,652.034,316.895,651.58,316.777z"/>
				<path fill="#0051BA" d="M652.57,317.133l-0.004-0.002c-0.342-0.159-0.522-0.229-0.987-0.349l-0.004-0.002l0.375-1.545
					l0.803-0.38l0.002,0.004l0.421,0.826L652.57,317.133z M651.586,316.773c0.459,0.119,0.64,0.189,0.978,0.346l0.601-1.432
					l-0.417-0.817l-0.792,0.375L651.586,316.773z"/>
			</g>
			<path id="path3505" fill="none" d="M648.422,316.781l-0.349-1.511l0.524-0.75l0.745,0.503l0.126,1.587
				C649.105,316.642,648.841,316.682,648.422,316.781z"/>
			<g>
				<path id="path3507_1_" fill="#0051BA" d="M649.48,316.611l-0.126-1.592l0.634-0.588l0.663,0.586l-0.117,1.595
					C650.168,316.59,649.907,316.59,649.48,316.611z"/>
				<path fill="#0051BA" d="M650.539,316.619l-0.006-0.001c-0.188-0.012-0.345-0.017-0.507-0.017c-0.154,0-0.323,0.005-0.546,0.015
					h-0.005l0-0.006l-0.126-1.595l0.003-0.002l0.637-0.592l0.668,0.592L650.539,316.619z M650.026,316.589
					c0.161,0,0.316,0.005,0.502,0.016l0.117-1.583l-0.656-0.581l-0.628,0.583l0.125,1.581
					C649.705,316.593,649.872,316.589,650.026,316.589z"/>
			</g>
			<g>
				<path id="path3509_1_" fill="#0051BA" d="M647.441,317.125l-0.591-1.458l0.395-0.805l0.819,0.416l0.346,1.505
					C648.036,316.872,647.838,316.946,647.441,317.125z"/>
				<path fill="#0051BA" d="M647.438,317.132l-0.002-0.005l-0.592-1.461l0.001-0.002l0.397-0.81l0.004,0.002l0.821,0.416
					l0.001,0.003l0.347,1.511l-0.005,0.001c-0.38,0.092-0.584,0.17-0.968,0.343L647.438,317.132z M646.855,315.667l0.588,1.452
					c0.38-0.171,0.584-0.249,0.961-0.341l-0.344-1.496l-0.813-0.413L646.855,315.667z"/>
			</g>
			<g>
				<path id="path3511_1_" fill="#FFFFFF" d="M647.315,316.393c0.181,0.02,0.308,0.01,0.465-0.053
					c0.185-0.101,0.244-0.218,0.299-0.314c0.044,0.185,0.027,0.359-0.181,0.5C647.708,316.641,647.439,316.608,647.315,316.393z"/>
				<path fill="#FFFFFF" d="M647.665,316.597c-0.151,0-0.28-0.073-0.354-0.201l-0.005-0.009l0.009,0.002
					c0.056,0.006,0.105,0.009,0.149,0.009c0.111,0,0.205-0.019,0.314-0.062c0.171-0.094,0.232-0.199,0.286-0.292l0.016-0.028
					l0.003,0.011c0.036,0.153,0.048,0.348-0.184,0.505C647.829,316.574,647.748,316.597,647.665,316.597z M647.324,316.399
					c0.073,0.12,0.197,0.188,0.342,0.188c0.081,0,0.161-0.022,0.23-0.064c0.221-0.15,0.215-0.335,0.181-0.483l-0.005,0.009
					c-0.051,0.09-0.116,0.201-0.289,0.296c-0.111,0.044-0.205,0.063-0.318,0.063C647.422,316.408,647.376,316.405,647.324,316.399z"
					/>
			</g>
			<g id="g3513" transform="matrix(0.4175026,0,0,0.4095986,486.26444,76.346713)">
				<g>
					<path id="path3515_1_" fill="#FFFF00" d="M392.553,583.339l-0.081,0.022l0.004,0.176l-0.1,0.025l-0.07,0.154l0.043,0.049
						c0.003,0.004-0.034,0.113-0.033,0.113c0.003,0,0.027,0.043,0.027,0.043l0.027,0.093l0.067,0.01l0.018,0.113l0.105,0.019
						l0.099,0.083l0.005,0.049l0.113,0.005l0.076,0.029l0.268-0.036l0.036-0.065l0.003-0.091l0.144-0.005l0.014-0.141h0.076
						l-0.01-0.162l0.064,0.008l-0.017-0.078l-0.039-0.062l-0.008-0.098l-0.112-0.131l-0.025-0.172c0,0-0.072-0.038-0.072-0.039
						c0-0.003-0.004-0.115-0.004-0.115l0.081-0.133l-0.008-0.052l-0.076-0.004l-0.056,0.056c0,0-0.075,0.01-0.075,0.012
						c0,0.001,0,0.039,0,0.039s0.019,0.075,0.019,0.076c0,0.003-0.086,0-0.086,0l-0.003-0.117l-0.122-0.071
						c0,0-0.114,0.091-0.114,0.092c0,0.001-0.006,0.106-0.006,0.106l-0.055,0.018l-0.056-0.098l-0.099-0.044l-0.052-0.003
						l-0.003,0.075l0.104,0.158L392.553,583.339z"/>
					<path fill="#CCA300" d="M392.851,584.355l-0.078-0.031l-0.131-0.004l-0.008-0.063l-0.085-0.07l-0.118-0.022l-0.017-0.111
						l-0.065-0.01l-0.031-0.109c-0.004-0.005-0.01-0.016-0.015-0.023h-0.001l-0.008-0.014c-0.009-0.013-0.008-0.018,0.008-0.065
						c0.005-0.016,0.013-0.04,0.017-0.056l-0.047-0.053l0.086-0.188l0.09-0.022l-0.004-0.175l0.085-0.025l0.005-0.06l-0.102-0.157
						l0.003-0.119l0.088,0.008l0.105,0.047l0.051,0.088l0.019-0.006c0.001-0.029,0.005-0.079,0.005-0.083
						c0-0.017,0-0.017,0.125-0.117l0.013-0.01l0.15,0.087l0.003,0.107c0.009,0,0.018,0,0.027,0
						c-0.005-0.018-0.009-0.038-0.009-0.038l-0.001-0.009v-0.039c0-0.03,0.003-0.031,0.09-0.041l0.057-0.056l0.107,0.003
						l0.013,0.091l-0.083,0.135c0.001,0.019,0.003,0.062,0.004,0.087c0.014,0.006,0.037,0.019,0.057,0.03l0.013,0.008l0.027,0.179
						l0.113,0.131l0.008,0.101l0.039,0.066l0.027,0.12l-0.071-0.008l0.01,0.157h-0.081l-0.013,0.142l-0.142,0.004l-0.003,0.07
						l-0.046,0.084L392.851,584.355z M392.687,584.259l0.098,0.005l0.071,0.027l0.25-0.034l0.025-0.047l0.004-0.109l0.145-0.006
						l0.013-0.144h0.072l-0.01-0.163l0.057,0.006l-0.006-0.029l-0.041-0.065l-0.008-0.096l-0.111-0.13l-0.024-0.167
						c-0.075-0.039-0.075-0.04-0.075-0.06c0-0.006-0.005-0.114-0.005-0.114v-0.012l0.08-0.13l-0.003-0.016l-0.043-0.001
						l-0.056,0.053l-0.008,0.001c-0.018,0.001-0.037,0.004-0.051,0.005v0.01c0.018,0.075,0.018,0.075,0.018,0.08
						c0,0.032-0.024,0.032-0.048,0.032c-0.025,0-0.064,0-0.064,0l-0.025-0.001l-0.003-0.128l-0.094-0.056
						c-0.037,0.03-0.075,0.06-0.091,0.074c-0.001,0.03-0.005,0.091-0.005,0.091l-0.001,0.022l-0.09,0.031l-0.062-0.109l-0.088-0.04
						l-0.022-0.001l-0.001,0.034l0.104,0.159l-0.013,0.127l-0.079,0.023l0.004,0.176l-0.109,0.027l-0.055,0.122l0.033,0.04
						c0.006,0.014,0.005,0.022-0.02,0.101c-0.003,0.008-0.004,0.014-0.006,0.019c0.005,0.008,0.011,0.017,0.019,0.031l0.004,0.008
						l0.022,0.076l0.069,0.01l0.018,0.113l0.094,0.018l0.113,0.093L392.687,584.259z"/>
				</g>
				
					<rect x="393.29" y="583.921" transform="matrix(0.2268 0.9739 -0.9739 0.2268 872.8165 68.4325)" fill="#CCA300" width="0.037" height="0.02"/>
				
					<rect x="393.349" y="583.78" transform="matrix(0.5145 0.8575 -0.8575 0.5145 691.5757 -53.873)" fill="#CCA300" width="0.028" height="0.021"/>
				<g>
					<path id="path3521_1_" fill="#CCA300" d="M392.351,583.75l0.117-0.008l0.023,0.124l0.039,0.04l0.006,0.227l0.038,0.018
						l0.011-0.088l0.09-0.01l0.018,0.185l-0.023,0.022l0.009,0.029l0.109-0.003c0,0,0.024-0.048,0.027-0.048
						c0.001,0,0.061-0.009,0.061-0.006s0.024,0.054,0.024,0.054l0.018-0.07c0,0,0.057-0.029,0.057-0.025
						c0,0.003,0.047,0.087,0.047,0.087l0.08-0.013l-0.05-0.053l-0.019-0.119l0.111-0.07l0.043,0.088c0,0,0.042,0.003,0.041,0
						c-0.003-0.004-0.05-0.101-0.05-0.101v-0.206l0.084-0.135l0.118-0.016v-0.057l-0.118-0.126l-0.03-0.175l-0.066-0.039
						l-0.018,0.023l-0.072,0.008l0.072,0.126v0.083l0.033,0.022l-0.006,0.225c0,0-0.081,0.013-0.081,0.016
						c0,0.003-0.008,0.127-0.008,0.127l-0.051,0.06c0,0-0.028,0.118-0.03,0.118s-0.048,0.073-0.048,0.073l-0.09,0.003
						c0,0-0.053-0.061-0.053-0.062c0-0.003-0.009-0.087-0.009-0.087s-0.036-0.014-0.038-0.014c-0.001,0-0.019-0.095-0.019-0.095
						l-0.062-0.041l-0.005-0.057l-0.06-0.031c0,0-0.006-0.051-0.008-0.054c-0.003-0.003-0.029-0.022-0.032-0.022
						s-0.003-0.143-0.003-0.143l0.053-0.01l-0.029-0.045l-0.01-0.039v-0.043l0.044-0.052c0,0-0.08-0.012-0.08-0.01
						c0,0.004-0.078,0.043-0.078,0.04c0.003,0-0.003,0.167-0.003,0.167l-0.09,0.034l-0.072,0.136L392.351,583.75z"/>
					<path fill="#CCA300" d="M392.909,584.365l-0.03-0.063c-0.008-0.017-0.013-0.029-0.017-0.038c-0.01,0-0.024,0.001-0.033,0.003
						c-0.006,0.014-0.018,0.035-0.018,0.035l-0.008,0.016l-0.141,0.003l-0.022-0.069l0.025-0.027l-0.013-0.137l-0.046,0.005
						l-0.013,0.104l-0.084-0.04l-0.006-0.233l-0.038-0.039l-0.019-0.109l-0.105,0.007l-0.062-0.065l0.09-0.167l0.081-0.03
						c0.001-0.048,0.003-0.096,0.003-0.122l0,0v-0.017l-0.023-0.054l0.048,0.016c0.011-0.006,0.037-0.018,0.052-0.026v-0.012h0.028
						c0.013,0,0.065,0.008,0.08,0.01l0.053,0.009l-0.075,0.087v0.023l0.008,0.029l0.055,0.083l-0.075,0.014
						c0,0.039,0,0.076,0.001,0.097c0.013,0.009,0.024,0.019,0.024,0.019c0.005,0.008,0.008,0.01,0.014,0.056l0.061,0.03l0.004,0.06
						l0.061,0.04l0.003,0.014c0.005,0.027,0.01,0.058,0.014,0.075c0.006,0.004,0.014,0.006,0.025,0.009l0.017,0.007l0.001,0.019
						c0.005,0.045,0.008,0.066,0.008,0.079c0.008,0.009,0.024,0.027,0.038,0.043l0.067-0.001c0.022-0.031,0.033-0.049,0.041-0.06
						c0.005-0.016,0.017-0.066,0.028-0.109l0.001-0.008l0.048-0.058c0.003-0.029,0.006-0.106,0.006-0.113
						c0-0.026,0.005-0.029,0.083-0.04l0.005-0.181l-0.032-0.022v-0.091l-0.094-0.162l0.107-0.012l0.024-0.032l0.095,0.057
						l0.032,0.179l0.119,0.13v0.098l-0.128,0.018l-0.072,0.114v0.188c0.019,0.04,0.041,0.084,0.043,0.091l0.013,0.014l-0.009,0.016
						c-0.008,0.019-0.024,0.019-0.034,0.019c-0.011,0-0.032-0.001-0.032-0.001h-0.014l-0.038-0.076l-0.071,0.045l0.014,0.086
						l0.083,0.092l-0.15,0.025l-0.009-0.017c-0.018-0.031-0.029-0.053-0.037-0.067c-0.006,0.003-0.015,0.006-0.024,0.012
						L392.909,584.365z M392.7,584.022l0.022,0.228l-0.006,0.008l0.06-0.001c0.02-0.043,0.025-0.05,0.042-0.05l0.006-0.001
						c0.015-0.001,0.042-0.004,0.052-0.004h0.022l0.001-0.006l0.011-0.006c0.02-0.009,0.033-0.016,0.043-0.019l-0.095,0.001
						l-0.009-0.008c-0.061-0.069-0.061-0.069-0.061-0.084c0-0.004-0.004-0.04-0.006-0.065c-0.008-0.001-0.015-0.004-0.018-0.007
						c-0.018,0.003-0.02-0.003-0.038-0.105l-0.064-0.043l-0.005-0.054l-0.058-0.03l-0.003-0.017c0,0-0.003-0.026-0.005-0.041
						c-0.005-0.003-0.01-0.008-0.015-0.01c-0.022-0.001-0.022-0.013-0.022-0.172v-0.027l0.032-0.005l-0.008-0.014l-0.011-0.048
						v-0.054l0.014-0.017c-0.006,0-0.011-0.001-0.015-0.001c-0.014,0.01-0.032,0.019-0.048,0.026l0.013,0.029l-0.023-0.006
						c0,0.026-0.001,0.065-0.003,0.128l-0.001,0.021l-0.099,0.036l-0.055,0.106l0.013,0.013l0.128-0.008l0.024,0.139l0.042,0.044
						l0.005,0.157l0.003-0.018L392.7,584.022z M393.003,584.182c0.005,0.012,0.019,0.038,0.033,0.063l0.009-0.001l-0.015-0.017
						l-0.02-0.122c-0.009,0.014-0.02,0.032-0.032,0.049l-0.003,0.004h0.001h0.027V584.182z M393.06,583.962
						c-0.011,0.044-0.019,0.075-0.024,0.095l0.118-0.074v-0.189l0.01-0.016c-0.017,0.001-0.033,0.005-0.046,0.008
						c-0.001,0.038-0.005,0.102-0.005,0.102l-0.001,0.013L393.06,583.962z M393.175,583.479l0.034,0.019l-0.006,0.218l0.047-0.075
						l0.105-0.013v-0.016l-0.114-0.124l-0.03-0.171l-0.037-0.022l-0.011,0.014l-0.039,0.005l0.052,0.091V583.479z"/>
				</g>
				<g>
					<path id="path3523_1_" fill="#663D19" d="M392.809,583.979l0.06-0.04l-0.001-0.08l-0.058-0.016l-0.022-0.027l0.064,0.014
						l0.08-0.008l0.027-0.016c-0.011,0.034-0.02,0.031-0.023,0.031c-0.001,0-0.043,0.026-0.043,0.026l0.001,0.076
						c0,0,0.137,0.021,0.135,0.021c-0.001,0,0,0.031-0.004,0.031s-0.141-0.035-0.141-0.035l-0.086,0.062L392.809,583.979z"/>
					<path fill="#CCA300" d="M392.769,584.056l0.029-0.087l0.057-0.039l-0.001-0.06l-0.052-0.013l-0.055-0.063l0.105,0.021
						l0.074-0.008l0.055-0.031l-0.013,0.036c-0.005,0.018-0.015,0.04-0.033,0.04c0,0.001-0.017,0.012-0.032,0.019l0.001,0.054
						c0.067,0.012,0.1,0.016,0.118,0.021c0.001,0,0.003,0,0.004,0v0.001c0.014,0.004,0.014,0.008,0.014,0.014l-0.001,0.014
						c-0.001,0.016-0.003,0.032-0.017,0.032c-0.001,0-0.006,0-0.139-0.035L392.769,584.056z"/>
				</g>
				<g>
					<path id="path3525_1_" fill="#CCA300" d="M393.155,583.501l-0.08,0.07l-0.051,0.106l-0.027,0.006l-0.078-0.122l-0.088,0.001
						c0,0-0.05,0.142-0.05,0.145c0,0.003-0.034-0.005-0.034-0.005l-0.093-0.118c0,0-0.029-0.06-0.025-0.06
						c0.005,0,0.233,0.001,0.233,0.001l-0.003-0.128c0,0-0.036-0.012-0.053-0.025c0.014-0.005,0.127-0.005,0.127-0.005l-0.05,0.038
						v0.113l0.202,0.001L393.155,583.501z"/>
					<path fill="#CCA300" d="M392.781,583.741c-0.009,0-0.038-0.006-0.038-0.006l-0.009-0.003l-0.102-0.132
						c-0.029-0.06-0.033-0.073-0.025-0.088l0.008-0.017h0.015c0.004,0,0.146,0.001,0.206,0.003l-0.001-0.075
						c-0.013-0.006-0.029-0.014-0.041-0.023l-0.048-0.035l0.053-0.019c0.011-0.004,0.057-0.006,0.135-0.006h0.085l-0.108,0.086
						v0.063l0.172,0.003l0.065-0.019l0.023,0.054l-0.075,0.069l-0.055,0.113l-0.055,0.01l-0.079-0.123l-0.057,0.001
						c-0.015,0.045-0.036,0.104-0.041,0.119v0.026L392.781,583.741z M392.761,583.675c0.001,0.001,0.003,0.001,0.005,0.001
						c0.006-0.019,0.018-0.056,0.039-0.118c-0.042,0-0.097,0-0.133-0.001c0.001,0.004,0.003,0.007,0.004,0.01L392.761,583.675z
						 M392.945,583.55l0.062,0.098l0.047-0.098H392.945z"/>
				</g>
				<polygon id="rect3527" fill="#663D19" points="392.742,583.562 392.762,583.562 392.778,583.58 392.778,583.605 
					392.762,583.623 392.742,583.623 392.725,583.605 392.725,583.58 				"/>
				<polygon id="rect3529" fill="#663D19" points="392.994,583.549 393.013,583.549 393.03,583.568 393.03,583.592 393.013,583.611 
					392.994,583.611 392.977,583.592 392.977,583.568 				"/>
				<path fill="#CCA300" d="M392.616,583.385l-0.019-0.058l0.02-0.009c0.075-0.036,0.135-0.065,0.234-0.075
					c0.102-0.012,0.183,0.005,0.268,0.025l-0.009,0.06c-0.085-0.018-0.159-0.035-0.254-0.022c-0.091,0.009-0.149,0.036-0.22,0.071
					L392.616,583.385z"/>
				<g>
					<path id="path3533_1_" fill="#CCA300" d="M392.653,583.146h-0.069l-0.098-0.12l0.056,0.008l0.064,0.034L392.653,583.146z"/>
					<path fill="#CCA300" d="M392.702,583.177h-0.13l-0.155-0.192l0.135,0.019l0.071,0.038L392.702,583.177z M392.595,583.115h0.008
						l-0.014-0.025l-0.023-0.01L392.595,583.115z"/>
				</g>
				<g>
					<path id="path3535_1_" fill="#CCA300" d="M393.066,583.1l0.155-0.139l-0.051-0.008l-0.058,0.062l-0.067,0.012L393.066,583.1z"
						/>
					<polygon fill="#CCA300" points="393.053,583.15 393.008,583.004 393.1,582.987 393.161,582.921 393.287,582.94 					"/>
				</g>
				<g>
					<path id="path3537_1_" fill="#CCA300" d="M392.974,583.125l-0.243,0.01l0.003-0.03l0.089-0.01l0.01-0.041
						c0,0,0.027-0.003,0.027,0c0,0.001,0.02,0.038,0.02,0.038l0.086,0.018L392.974,583.125z"/>
					<path fill="#CCA300" d="M392.703,583.168l0.006-0.091l0.093-0.01l0.011-0.043l0.018-0.001c0,0,0.013-0.001,0.022-0.001
						c0.02,0,0.028,0.012,0.032,0.021c0.001,0.006,0.006,0.016,0.01,0.021l0.086,0.018l0.039,0.073L392.703,583.168z"/>
				</g>
				<g>
					<path id="path3539_1_" fill="#CCA300" d="M392.961,583.018l-0.084,0.001l-0.006-0.052L392.961,583.018z"/>
					<polygon fill="#CCA300" points="392.856,583.052 392.838,582.913 392.973,582.99 392.963,583.049 					"/>
				</g>
				<g>
					<path id="path3541_1_" fill="#CCA300" d="M392.82,582.969l-0.006,0.054l-0.083,0.014L392.82,582.969z"/>
					<polygon fill="#CCA300" points="392.736,583.07 392.717,583.013 392.855,582.905 392.837,583.05 					"/>
				</g>
				<g>
					<path id="path3543_1_" fill="#CCA300" d="M392.356,583.957l0.042-0.124l-0.038-0.086l-0.037,0.127L392.356,583.957z"/>
					<path fill="#CCA300" d="M392.358,584.032l-0.062-0.157l0.061-0.206l0.07,0.162L392.358,584.032z M392.351,583.872l0.003,0.008
						l0.015-0.045l-0.004-0.01L392.351,583.872z"/>
				</g>
				<g>
					<path id="path3545_1_" fill="#CCA300" d="M392.44,584.023l0.051-0.146l-0.098,0.118L392.44,584.023z"/>
					<polygon fill="#CCA300" points="392.453,584.066 392.35,584.004 392.472,583.853 392.515,583.888 					"/>
				</g>
			</g>
			<g id="g3547" transform="matrix(0.4175026,0,0,0.4095986,458.26281,77.251208)">
				<g>
					<path id="path3549_1_" fill="#FFFF00" d="M458.282,581.182l-0.081,0.025l0.003,0.174l-0.099,0.026l-0.071,0.154l0.043,0.048
						c0.003,0.005-0.033,0.114-0.032,0.114s0.027,0.043,0.027,0.043l0.027,0.093l0.066,0.012l0.018,0.11l0.107,0.021l0.098,0.083
						l0.006,0.051l0.113,0.004l0.076,0.028l0.267-0.036l0.036-0.065l0.004-0.089l0.144-0.007l0.013-0.142h0.076l-0.009-0.159
						l0.064,0.006l-0.017-0.078l-0.039-0.062l-0.008-0.098l-0.113-0.131l-0.025-0.172c0,0-0.071-0.038-0.071-0.039
						c0-0.003-0.005-0.115-0.005-0.115l0.081-0.133l-0.008-0.053l-0.075-0.003l-0.056,0.056c0,0-0.075,0.009-0.075,0.01
						c0,0.003,0,0.04,0,0.04s0.018,0.075,0.018,0.076c0,0.001-0.085,0-0.085,0l-0.004-0.118l-0.122-0.071
						c0,0-0.113,0.091-0.113,0.093c0,0.001-0.006,0.105-0.006,0.105l-0.055,0.018l-0.057-0.099l-0.098-0.043l-0.053-0.004
						l-0.001,0.076l0.103,0.158L458.282,581.182z"/>
					<path fill="#CCA300" d="M458.579,582.197l-0.079-0.03l-0.131-0.003l-0.008-0.066l-0.084-0.069l-0.119-0.023l-0.017-0.11
						l-0.065-0.01l-0.031-0.109c-0.004-0.006-0.01-0.017-0.015-0.025h-0.001l-0.008-0.013c-0.008-0.014-0.006-0.018,0.008-0.065
						c0.005-0.016,0.013-0.041,0.018-0.056l-0.047-0.052l0.085-0.189l0.09-0.023l-0.003-0.174l0.084-0.026l0.006-0.058l-0.103-0.157
						l0.003-0.119l0.088,0.006l0.107,0.048l0.05,0.088l0.019-0.008c0.003-0.029,0.005-0.078,0.005-0.083
						c0-0.016,0-0.016,0.126-0.117l0.013-0.01l0.149,0.088l0.004,0.108c0.008,0,0.017,0,0.025,0
						c-0.004-0.018-0.009-0.038-0.009-0.038l-0.001-0.009v-0.04c0-0.029,0.004-0.03,0.09-0.04l0.058-0.056l0.105,0.003l0.014,0.091
						l-0.083,0.135c0.001,0.019,0.003,0.062,0.004,0.086c0.013,0.008,0.036,0.021,0.057,0.032l0.013,0.006l0.025,0.177l0.113,0.132
						l0.009,0.101l0.039,0.066l0.025,0.119l-0.07-0.008l0.009,0.158h-0.08L459.055,582l-0.142,0.004l-0.003,0.07l-0.046,0.084
						L458.579,582.197z M458.416,582.104l0.098,0.003l0.071,0.027l0.249-0.032l0.025-0.047l0.004-0.109l0.145-0.006l0.014-0.144
						h0.071l-0.009-0.163l0.057,0.006l-0.006-0.03l-0.041-0.065l-0.008-0.095l-0.112-0.131l-0.024-0.164
						c-0.075-0.04-0.075-0.041-0.075-0.061c0-0.005-0.004-0.114-0.004-0.114l-0.001-0.012l0.08-0.131l-0.001-0.014l-0.044-0.001
						l-0.055,0.052l-0.008,0.003c-0.018,0.001-0.038,0.004-0.052,0.006v0.008c0.019,0.076,0.019,0.076,0.019,0.082
						c0,0.032-0.024,0.032-0.048,0.032c-0.025,0-0.065,0-0.065,0l-0.024-0.001l-0.004-0.13l-0.094-0.056
						c-0.037,0.03-0.075,0.061-0.091,0.074c-0.001,0.031-0.005,0.093-0.005,0.093l-0.001,0.021l-0.09,0.03l-0.062-0.109
						l-0.086-0.039l-0.023-0.001l-0.001,0.034l0.104,0.159l-0.013,0.127l-0.078,0.025l0.003,0.175l-0.109,0.027l-0.055,0.12
						l0.034,0.04c0.006,0.014,0.004,0.022-0.02,0.102c-0.003,0.008-0.005,0.014-0.006,0.019c0.005,0.008,0.01,0.017,0.018,0.031
						l0.004,0.006l0.022,0.078l0.07,0.01l0.017,0.111l0.094,0.018l0.113,0.095L458.416,582.104z"/>
				</g>
				
					<rect x="459.018" y="581.766" transform="matrix(0.2334 0.9724 -0.9724 0.2334 917.6217 -0.3565)" fill="#CCA300" width="0.038" height="0.02"/>
				<polygon fill="#CCA300" points="459.088,581.684 459.051,581.619 459.093,581.584 459.131,581.648 				"/>
				<g>
					<path id="path3555_1_" fill="#CCA300" d="M458.08,581.593l0.117-0.008l0.022,0.124l0.041,0.04l0.006,0.227l0.037,0.018
						l0.011-0.089l0.09-0.008l0.018,0.183l-0.022,0.023l0.009,0.028l0.108-0.003c0,0,0.024-0.049,0.027-0.049
						c0.003,0,0.062-0.006,0.062-0.005c0,0.003,0.024,0.054,0.024,0.054l0.018-0.07c0,0,0.057-0.029,0.057-0.026
						c0,0.004,0.046,0.088,0.046,0.088l0.08-0.013l-0.048-0.053l-0.02-0.12l0.111-0.069l0.044,0.087c0,0,0.042,0.004,0.039,0
						c-0.003-0.003-0.048-0.101-0.048-0.101v-0.205l0.084-0.135l0.117-0.016v-0.056l-0.117-0.127l-0.031-0.175l-0.067-0.04
						l-0.018,0.025l-0.072,0.008l0.072,0.126v0.083l0.034,0.021l-0.008,0.227c0,0-0.081,0.013-0.081,0.016s-0.006,0.127-0.006,0.127
						l-0.051,0.058c0,0-0.029,0.118-0.032,0.118c-0.001,0-0.048,0.073-0.048,0.073l-0.09,0.004c0,0-0.053-0.06-0.053-0.062
						c0-0.004-0.009-0.088-0.009-0.088s-0.036-0.013-0.037-0.013c-0.003,0-0.02-0.096-0.02-0.096l-0.062-0.04l-0.004-0.058
						l-0.06-0.03c0,0-0.006-0.052-0.009-0.054c-0.003-0.003-0.029-0.023-0.03-0.023c-0.003,0-0.003-0.141-0.003-0.141l0.053-0.01
						l-0.03-0.045l-0.01-0.04v-0.041l0.044-0.052c0,0-0.08-0.012-0.08-0.009c0,0.001-0.076,0.041-0.076,0.038
						c0.001,0-0.003,0.168-0.003,0.168l-0.09,0.032l-0.074,0.137L458.08,581.593z"/>
					<path fill="#CCA300" d="M458.637,582.207l-0.029-0.062c-0.008-0.017-0.014-0.03-0.018-0.039c-0.01,0-0.023,0.004-0.032,0.004
						c-0.008,0.013-0.018,0.035-0.018,0.035l-0.008,0.014l-0.141,0.005l-0.022-0.07l0.025-0.027l-0.014-0.137l-0.044,0.004
						l-0.013,0.105l-0.084-0.041l-0.008-0.232l-0.037-0.04l-0.02-0.109l-0.104,0.008l-0.064-0.063l0.09-0.17l0.083-0.03
						c0.001-0.047,0.001-0.095,0.003-0.12h-0.001v-0.017l-0.023-0.054l0.048,0.016c0.011-0.005,0.037-0.018,0.052-0.026v-0.012
						h0.028c0.013,0,0.065,0.006,0.081,0.01l0.052,0.009l-0.074,0.086v0.025l0.008,0.03l0.053,0.082l-0.075,0.014
						c0,0.039,0.001,0.076,0.001,0.096c0.013,0.009,0.024,0.022,0.024,0.022c0.006,0.005,0.008,0.009,0.014,0.054l0.061,0.03
						l0.005,0.058l0.06,0.041l0.003,0.013c0.005,0.028,0.011,0.06,0.015,0.076c0.005,0.003,0.014,0.006,0.024,0.009l0.017,0.005
						l0.003,0.021c0.004,0.045,0.006,0.067,0.008,0.078c0.008,0.009,0.023,0.027,0.038,0.044l0.067-0.001
						c0.02-0.032,0.032-0.05,0.039-0.061c0.005-0.014,0.018-0.065,0.028-0.109l0.003-0.008l0.048-0.056
						c0.001-0.03,0.005-0.109,0.006-0.114c-0.001-0.026,0.004-0.03,0.083-0.041l0.005-0.181l-0.033-0.021v-0.091l-0.094-0.162
						l0.108-0.012l0.024-0.032l0.095,0.056l0.032,0.18l0.119,0.128v0.098l-0.13,0.018l-0.072,0.115v0.187
						c0.02,0.043,0.041,0.086,0.044,0.091l0.013,0.016l-0.01,0.016c-0.006,0.019-0.023,0.019-0.033,0.019c-0.013,0-0.032,0-0.032,0
						l-0.014-0.001l-0.039-0.078l-0.071,0.045l0.014,0.087l0.083,0.092l-0.15,0.025l-0.009-0.017
						c-0.018-0.032-0.029-0.053-0.037-0.069c-0.006,0.005-0.015,0.008-0.024,0.013L458.637,582.207z M458.427,581.865l0.023,0.228
						l-0.008,0.008l0.06-0.003c0.02-0.04,0.027-0.049,0.042-0.049h0.008c0.014-0.003,0.041-0.006,0.051-0.006h0.022l0.003-0.005
						l0.011-0.006c0.019-0.009,0.033-0.017,0.042-0.019l-0.095,0.001l-0.008-0.008c-0.061-0.07-0.061-0.07-0.061-0.084
						c-0.001-0.005-0.005-0.042-0.008-0.063c-0.006-0.003-0.015-0.006-0.018-0.008c-0.019,0-0.019-0.003-0.038-0.104l-0.064-0.043
						l-0.004-0.056l-0.06-0.031l-0.001-0.016c0,0-0.004-0.026-0.006-0.042c-0.004-0.003-0.01-0.008-0.014-0.01
						c-0.023-0.001-0.023-0.014-0.023-0.172v-0.026l0.032-0.008l-0.006-0.013l-0.011-0.049v-0.054l0.013-0.017
						c-0.006,0-0.011-0.001-0.015-0.001c-0.014,0.012-0.032,0.019-0.047,0.026l0.011,0.029l-0.023-0.005
						c0,0.025,0,0.065-0.003,0.128v0.021l-0.099,0.038l-0.056,0.105l0.013,0.012l0.128-0.008l0.025,0.14l0.042,0.043l0.004,0.159
						l0.003-0.019L458.427,581.865z M458.731,582.026c0.006,0.012,0.019,0.036,0.034,0.062l0.009-0.001l-0.015-0.017l-0.02-0.12
						c-0.009,0.014-0.022,0.032-0.033,0.051l-0.003,0.003c0.001,0,0.001,0,0.003,0h0.025V582.026z M458.788,581.806
						c-0.011,0.044-0.018,0.074-0.024,0.093l0.118-0.074v-0.188l0.01-0.016c-0.017,0.001-0.033,0.004-0.046,0.008
						c-0.001,0.038-0.005,0.102-0.005,0.102v0.012L458.788,581.806z M458.904,581.323l0.034,0.019l-0.008,0.218l0.048-0.075
						l0.105-0.014v-0.014l-0.116-0.124l-0.029-0.171l-0.038-0.021l-0.011,0.013l-0.038,0.005l0.052,0.091V581.323z"/>
				</g>
				<g>
					<path id="path3557_1_" fill="#663D19" d="M458.538,581.823l0.06-0.04l-0.003-0.08l-0.057-0.016l-0.023-0.026l0.065,0.013
						l0.079-0.008l0.027-0.016c-0.011,0.034-0.019,0.03-0.022,0.03s-0.044,0.026-0.044,0.026l0.003,0.078
						c0,0,0.137,0.021,0.135,0.021c-0.003,0,0,0.032-0.005,0.032c-0.004,0-0.141-0.036-0.141-0.036l-0.086,0.061L458.538,581.823z"
						/>
					<path fill="#CCA300" d="M458.497,581.898l0.029-0.086l0.057-0.04l-0.001-0.058l-0.051-0.014l-0.055-0.062l0.104,0.021
						l0.075-0.008l0.053-0.031l-0.011,0.036c-0.006,0.018-0.015,0.04-0.033,0.04c-0.001,0.001-0.017,0.01-0.032,0.019l0.001,0.054
						c0.066,0.01,0.1,0.016,0.117,0.019c0.001,0,0.004,0,0.005,0v0.001c0.014,0.005,0.013,0.008,0.013,0.016l-0.001,0.014
						c0,0.014-0.003,0.031-0.017,0.031c-0.001,0-0.005,0-0.139-0.035L458.497,581.898z"/>
				</g>
				<g>
					<path id="path3559_1_" fill="#CCA300" d="M458.882,581.343l-0.08,0.071l-0.051,0.106l-0.027,0.005l-0.076-0.12l-0.089,0.001
						c0,0-0.048,0.143-0.048,0.145c0,0.003-0.036-0.004-0.036-0.004l-0.093-0.12c0,0-0.029-0.058-0.024-0.058
						c0.004,0,0.231,0.003,0.231,0.003l-0.001-0.13c0,0-0.036-0.012-0.053-0.026c0.013-0.004,0.126-0.004,0.126-0.004l-0.048,0.038
						v0.111l0.201,0.001L458.882,581.343z"/>
					<path fill="#CCA300" d="M458.508,581.584c-0.008,0-0.038-0.006-0.038-0.006l-0.008-0.003l-0.103-0.132
						c-0.029-0.06-0.033-0.073-0.024-0.089l0.008-0.014l0.015-0.003c0.004,0,0.145,0.003,0.206,0.004l-0.003-0.076
						c-0.013-0.005-0.029-0.013-0.041-0.021l-0.048-0.035l0.055-0.021c0.011-0.004,0.056-0.008,0.133-0.008h0.086l-0.109,0.087
						v0.063l0.173,0.003l0.065-0.019l0.022,0.054l-0.075,0.067l-0.055,0.114l-0.053,0.01l-0.079-0.124l-0.058,0.004
						c-0.015,0.043-0.036,0.102-0.041,0.118v0.026L458.508,581.584z M458.488,581.518c0.003,0,0.004,0,0.005,0
						c0.006-0.019,0.019-0.054,0.041-0.115c-0.042-0.001-0.098-0.001-0.135-0.001c0.001,0.003,0.003,0.005,0.005,0.008
						L458.488,581.518z M458.672,581.394l0.064,0.098l0.047-0.097L458.672,581.394z"/>
				</g>
				<polygon id="rect3561" fill="#663D19" points="458.47,581.406 458.489,581.406 458.506,581.425 458.506,581.448 
					458.489,581.468 458.47,581.468 458.454,581.448 458.454,581.425 				"/>
				<polygon id="rect3563" fill="#663D19" points="458.722,581.391 458.741,581.391 458.759,581.412 458.759,581.434 
					458.741,581.453 458.722,581.453 458.705,581.434 458.705,581.412 				"/>
				<path fill="#CCA300" d="M458.343,581.227l-0.019-0.057l0.02-0.009c0.076-0.036,0.136-0.065,0.235-0.075
					c0.102-0.013,0.182,0.005,0.267,0.023l-0.009,0.061c-0.085-0.018-0.159-0.035-0.253-0.022c-0.093,0.01-0.149,0.036-0.221,0.07
					L458.343,581.227z"/>
				<g>
					<path id="path3567_1_" fill="#CCA300" d="M458.38,580.99h-0.069l-0.097-0.12l0.055,0.008l0.065,0.032L458.38,580.99z"/>
					<path fill="#CCA300" d="M458.43,581.022h-0.128l-0.155-0.194l0.133,0.019l0.071,0.039L458.43,581.022z M458.323,580.96h0.008
						l-0.014-0.025l-0.023-0.012L458.323,580.96z"/>
				</g>
				<g>
					<path id="path3569_1_" fill="#CCA300" d="M458.793,580.943l0.155-0.139l-0.051-0.008l-0.057,0.062l-0.069,0.013
						L458.793,580.943z"/>
					<polygon fill="#CCA300" points="458.782,580.992 458.736,580.846 458.829,580.829 458.888,580.764 459.014,580.783 					"/>
				</g>
				<g>
					<path id="path3571_1_" fill="#CCA300" d="M458.703,580.969l-0.243,0.01l0.003-0.03l0.088-0.012l0.011-0.04
						c0,0,0.027-0.003,0.027,0c0,0.001,0.019,0.038,0.019,0.038l0.086,0.018L458.703,580.969z"/>
					<path fill="#CCA300" d="M458.432,581.013l0.006-0.093l0.093-0.01l0.01-0.041l0.018-0.003c0,0,0.013-0.001,0.022-0.001
						c0.022,0,0.029,0.013,0.032,0.022c0.003,0.005,0.006,0.014,0.011,0.022l0.086,0.017l0.038,0.073L458.432,581.013z"/>
				</g>
				<g>
					<path id="path3573_1_" fill="#CCA300" d="M458.69,580.862l-0.084,0.001l-0.008-0.053L458.69,580.862z"/>
					<polygon fill="#CCA300" points="458.583,580.895 458.567,580.757 458.701,580.833 458.69,580.891 					"/>
				</g>
				<g>
					<path id="path3575_1_" fill="#CCA300" d="M458.548,580.811l-0.006,0.054l-0.081,0.016L458.548,580.811z"/>
					<polygon fill="#CCA300" points="458.464,580.913 458.446,580.855 458.582,580.749 458.564,580.894 					"/>
				</g>
				<g>
					<path id="path3577_1_" fill="#CCA300" d="M458.084,581.801l0.042-0.124l-0.037-0.087l-0.038,0.127L458.084,581.801z"/>
					<path fill="#CCA300" d="M458.086,581.877l-0.064-0.159l0.061-0.205l0.071,0.162L458.086,581.877z M458.079,581.715l0.004,0.008
						l0.015-0.045l-0.005-0.009L458.079,581.715z"/>
				</g>
				<g>
					<path id="path3579_1_" fill="#CCA300" d="M458.168,581.867l0.051-0.146l-0.097,0.118L458.168,581.867z"/>
					<polygon fill="#CCA300" points="458.182,581.911 458.079,581.847 458.201,581.698 458.243,581.732 					"/>
				</g>
			</g>
			<g>
				<path id="path3581_1_" fill="#000090" d="M650.542,316.61l0.118-1.596l0.725-0.487l0.56,0.708l-0.373,1.538
					C651.21,316.687,651.004,316.65,650.542,316.61z"/>
				<path fill="#000090" d="M651.575,316.78l-0.004-0.001c-0.359-0.085-0.569-0.123-1.028-0.163h-0.005v-0.006l0.118-1.599
					l0.002-0.002l0.728-0.488l0.002,0.003l0.562,0.71L651.575,316.78z M650.548,316.604c0.455,0.04,0.665,0.077,1.021,0.162
					l0.371-1.53l-0.556-0.704l-0.719,0.483L650.548,316.604z"/>
			</g>
			<g id="g3583" transform="matrix(0.4175026,0,0,0.4095986,472.78214,103.09409)">
				<g>
					<path id="path3585_1_" fill="#FFFF00" d="M424.201,519.561l-0.081,0.023l0.004,0.176l-0.1,0.023l-0.07,0.157l0.043,0.047
						c0.003,0.005-0.034,0.114-0.033,0.114c0.001,0,0.027,0.041,0.027,0.041l0.027,0.095l0.067,0.012l0.017,0.11l0.107,0.021
						l0.098,0.082l0.006,0.052l0.113,0.003l0.076,0.029l0.267-0.036l0.037-0.065l0.003-0.089l0.144-0.006l0.014-0.141h0.076
						l-0.01-0.161l0.064,0.006l-0.017-0.078l-0.039-0.062l-0.008-0.097l-0.113-0.132l-0.024-0.171c0,0-0.072-0.039-0.072-0.04
						c0-0.001-0.005-0.115-0.005-0.115l0.081-0.133l-0.008-0.052l-0.075-0.003l-0.056,0.054c0,0-0.075,0.01-0.075,0.012
						s0,0.04,0,0.04s0.019,0.074,0.019,0.075c0,0.003-0.086,0-0.086,0l-0.003-0.117l-0.122-0.071c0,0-0.114,0.091-0.114,0.092
						c0,0.003-0.006,0.106-0.006,0.106l-0.055,0.018l-0.056-0.098l-0.099-0.044l-0.053-0.003l-0.001,0.076l0.103,0.157
						L424.201,519.561z"/>
					<path fill="#CCA300" d="M424.498,520.577l-0.079-0.03l-0.131-0.004l-0.008-0.063l-0.084-0.071l-0.118-0.022l-0.018-0.111
						l-0.065-0.01l-0.029-0.109c-0.004-0.005-0.01-0.016-0.015-0.023h-0.003l-0.008-0.014c-0.008-0.013-0.006-0.017,0.009-0.065
						c0.004-0.016,0.011-0.04,0.017-0.056l-0.047-0.052l0.085-0.189l0.091-0.022l-0.004-0.174l0.084-0.025l0.006-0.061l-0.102-0.157
						l0.001-0.119l0.088,0.008l0.107,0.047l0.051,0.089l0.019-0.007c0.001-0.03,0.004-0.08,0.004-0.084c0-0.017,0-0.017,0.126-0.117
						l0.013-0.01l0.15,0.087l0.003,0.108c0.008,0,0.018,0,0.027,0c-0.005-0.018-0.01-0.038-0.01-0.038l-0.001-0.008v-0.04
						c0-0.03,0.004-0.031,0.091-0.041l0.057-0.056l0.105,0.003l0.014,0.091l-0.083,0.135c0.001,0.019,0.003,0.062,0.004,0.087
						c0.014,0.007,0.037,0.019,0.057,0.031l0.013,0.006l0.025,0.179l0.114,0.131l0.008,0.101l0.039,0.066l0.025,0.12l-0.07-0.008
						l0.009,0.157h-0.08l-0.013,0.143l-0.142,0.005l-0.003,0.069l-0.047,0.087L424.498,520.577z M424.334,520.482l0.098,0.005
						l0.071,0.027l0.249-0.035l0.025-0.047l0.004-0.109l0.146-0.006l0.013-0.144h0.072l-0.01-0.163l0.057,0.006l-0.006-0.029
						l-0.041-0.063l-0.008-0.097l-0.112-0.13l-0.024-0.165c-0.074-0.041-0.074-0.041-0.074-0.062
						c-0.001-0.005-0.005-0.114-0.005-0.114v-0.01l0.08-0.131l-0.003-0.016l-0.044-0.001l-0.055,0.054h-0.008
						c-0.018,0.003-0.037,0.004-0.052,0.008v0.009c0.019,0.074,0.019,0.075,0.019,0.079c0,0.032-0.024,0.032-0.048,0.032
						c-0.025,0-0.064,0-0.064,0l-0.025-0.001l-0.003-0.128l-0.095-0.056c-0.037,0.03-0.074,0.06-0.09,0.074
						c-0.003,0.03-0.006,0.092-0.006,0.092l-0.001,0.021l-0.09,0.031l-0.062-0.109l-0.086-0.039l-0.023-0.001v0.034l0.104,0.159
						l-0.013,0.127l-0.079,0.023l0.003,0.175l-0.109,0.027l-0.055,0.122l0.034,0.04c0.006,0.016,0.005,0.022-0.02,0.101
						c-0.003,0.008-0.005,0.016-0.006,0.019c0.005,0.008,0.011,0.017,0.019,0.031l0.003,0.008l0.022,0.076l0.07,0.012l0.018,0.111
						l0.094,0.018l0.112,0.093L424.334,520.482z"/>
				</g>
				
					<rect x="424.937" y="520.144" transform="matrix(0.2268 0.9739 -0.9739 0.2268 835.1711 -11.7017)" fill="#CCA300" width="0.037" height="0.02"/>
				<polygon fill="#CCA300" points="425.008,520.062 424.969,519.998 425.013,519.963 425.049,520.026 				"/>
				<g>
					<path id="path3591_1_" fill="#CCA300" d="M423.999,519.972l0.117-0.008l0.023,0.124l0.039,0.04l0.006,0.229l0.038,0.018
						l0.01-0.091l0.091-0.008l0.018,0.183l-0.023,0.022l0.009,0.029l0.108-0.003c0,0,0.025-0.048,0.027-0.048
						c0.003,0,0.062-0.008,0.062-0.006c0,0.003,0.024,0.054,0.024,0.054l0.018-0.07c0,0,0.057-0.029,0.057-0.025
						c0,0.003,0.047,0.087,0.047,0.087l0.079-0.012l-0.048-0.054l-0.02-0.119l0.111-0.07l0.044,0.088c0,0,0.042,0.003,0.039,0
						c-0.001-0.001-0.048-0.1-0.048-0.1v-0.207l0.084-0.133l0.117-0.017v-0.056l-0.117-0.127l-0.031-0.175l-0.066-0.038
						l-0.018,0.022l-0.074,0.008l0.074,0.127v0.082l0.033,0.022l-0.006,0.225c0,0-0.083,0.014-0.083,0.016
						c0,0.003-0.006,0.127-0.006,0.127l-0.051,0.06c0,0-0.029,0.119-0.03,0.119c-0.003,0-0.05,0.071-0.05,0.071l-0.09,0.003
						c0,0-0.052-0.058-0.052-0.062c0-0.003-0.009-0.087-0.009-0.087s-0.036-0.013-0.038-0.013c-0.003,0-0.02-0.096-0.02-0.096
						l-0.061-0.041l-0.005-0.056l-0.06-0.032c0,0-0.006-0.051-0.009-0.054c-0.001-0.001-0.028-0.022-0.03-0.022
						s-0.003-0.143-0.003-0.143l0.053-0.01l-0.029-0.045l-0.01-0.039v-0.041l0.043-0.052c0,0-0.079-0.013-0.079-0.01
						c0,0.003-0.078,0.042-0.078,0.039c0.003,0-0.003,0.167-0.003,0.167l-0.09,0.034l-0.074,0.137L423.999,519.972z"/>
					<path fill="#CCA300" d="M424.556,520.587l-0.03-0.063c-0.008-0.017-0.014-0.029-0.018-0.038
						c-0.01,0.001-0.023,0.003-0.032,0.003c-0.008,0.014-0.018,0.036-0.018,0.036l-0.008,0.016l-0.141,0.003l-0.022-0.07
						l0.025-0.025l-0.013-0.139l-0.046,0.004l-0.013,0.104l-0.084-0.039l-0.006-0.234l-0.038-0.039l-0.019-0.107l-0.105,0.005
						l-0.062-0.062l0.09-0.17l0.081-0.03c0.001-0.048,0.003-0.095,0.003-0.122l0,0l-0.001-0.017l-0.022-0.054l0.048,0.016
						c0.011-0.004,0.036-0.017,0.051-0.026v-0.012h0.028c0.013,0,0.066,0.009,0.081,0.01l0.053,0.009l-0.075,0.087v0.023
						l0.008,0.031l0.053,0.08l-0.074,0.014c0,0.039,0,0.076,0,0.097c0.013,0.009,0.024,0.021,0.025,0.021
						c0.005,0.006,0.008,0.009,0.014,0.054l0.06,0.031l0.005,0.06l0.06,0.039l0.003,0.014c0.005,0.027,0.011,0.058,0.015,0.076
						c0.006,0.003,0.014,0.005,0.025,0.009l0.015,0.005l0.003,0.021c0.005,0.044,0.006,0.066,0.008,0.078
						c0.008,0.009,0.023,0.027,0.038,0.043l0.067-0.001c0.02-0.031,0.033-0.049,0.041-0.058c0.004-0.017,0.017-0.065,0.027-0.11
						l0.003-0.008l0.048-0.056c0.001-0.031,0.006-0.109,0.006-0.114c0-0.027,0.005-0.03,0.083-0.041l0.005-0.181l-0.033-0.021
						v-0.092l-0.093-0.162l0.107-0.012l0.024-0.032l0.095,0.057l0.032,0.181l0.119,0.128v0.098l-0.13,0.017l-0.071,0.114v0.188
						c0.009,0.021,0.038,0.083,0.043,0.091l0.013,0.014l-0.01,0.016c-0.006,0.019-0.024,0.019-0.033,0.019c-0.013,0-0.032,0-0.032,0
						l-0.014-0.001l-0.038-0.076l-0.072,0.045l0.015,0.086l0.083,0.092l-0.15,0.025l-0.009-0.017
						c-0.018-0.031-0.029-0.053-0.037-0.066c-0.006,0.003-0.015,0.008-0.024,0.01L424.556,520.587z M424.347,520.244l0.022,0.228
						l-0.006,0.008l0.06-0.001c0.02-0.041,0.025-0.051,0.041-0.051h0.008c0.015-0.001,0.042-0.004,0.051-0.004h0.023l0.001-0.008
						l0.011-0.006c0.02-0.009,0.033-0.014,0.042-0.019l-0.095,0.004l-0.008-0.01c-0.061-0.067-0.061-0.069-0.061-0.084
						c0-0.003-0.004-0.04-0.006-0.063c-0.008-0.003-0.015-0.005-0.019-0.005c-0.018,0-0.019-0.005-0.038-0.106l-0.064-0.043
						l-0.004-0.054l-0.058-0.031l-0.003-0.017c0,0-0.004-0.026-0.005-0.039c-0.005-0.005-0.011-0.01-0.015-0.013
						c-0.022,0-0.022-0.013-0.022-0.172v-0.026l0.032-0.005l-0.008-0.016l-0.011-0.048v-0.054l0.014-0.016
						c-0.006-0.001-0.013-0.001-0.017-0.003c-0.013,0.01-0.032,0.019-0.047,0.027l0.011,0.029l-0.022-0.008
						c0,0.026-0.001,0.066-0.003,0.128l-0.001,0.021l-0.099,0.039l-0.056,0.104l0.013,0.014l0.13-0.009l0.024,0.139l0.042,0.044
						l0.005,0.158l0.001-0.018L424.347,520.244z M424.65,520.406c0.005,0.01,0.019,0.036,0.033,0.062l0.009-0.001l-0.015-0.017
						l-0.02-0.122c-0.009,0.014-0.022,0.034-0.032,0.051l-0.003,0.004h0.001h0.025L424.65,520.406z M424.706,520.184
						c-0.01,0.047-0.018,0.075-0.024,0.096l0.119-0.075v-0.189l0.01-0.016c-0.018,0.003-0.034,0.006-0.046,0.008
						c-0.003,0.038-0.005,0.102-0.005,0.102l-0.001,0.013L424.706,520.184z M424.822,519.701l0.034,0.022l-0.006,0.215l0.047-0.075
						l0.105-0.013v-0.016l-0.114-0.124l-0.03-0.171l-0.038-0.021l-0.01,0.016l-0.039,0.003l0.052,0.091V519.701z"/>
				</g>
				<g>
					<path id="path3593_1_" fill="#663D19" d="M424.456,520.201l0.06-0.04l-0.003-0.08l-0.057-0.016l-0.022-0.026l0.064,0.013
						l0.08-0.008l0.025-0.016c-0.01,0.034-0.019,0.031-0.022,0.031s-0.044,0.027-0.044,0.027l0.003,0.076
						c0,0,0.137,0.019,0.135,0.019c-0.003,0,0,0.032-0.004,0.032c-0.005,0-0.142-0.036-0.142-0.036l-0.085,0.062L424.456,520.201z"
						/>
					<path fill="#CCA300" d="M424.415,520.279l0.03-0.088l0.057-0.039l-0.003-0.06l-0.051-0.013l-0.055-0.063l0.105,0.021
						l0.074-0.008l0.055-0.031l-0.013,0.038c-0.005,0.017-0.015,0.04-0.033,0.04c-0.001,0-0.017,0.01-0.032,0.021l0.001,0.054
						c0.066,0.009,0.1,0.014,0.118,0.019c0.001-0.001,0.003-0.001,0.004-0.001v0.001c0.014,0.004,0.014,0.008,0.013,0.014
						l-0.001,0.016c0,0.014-0.001,0.031-0.015,0.031c-0.003,0-0.006,0-0.14-0.035L424.415,520.279z"/>
				</g>
				<g>
					<path id="path3595_1_" fill="#CCA300" d="M424.8,519.723l-0.079,0.073l-0.051,0.105l-0.027,0.005l-0.078-0.122l-0.089,0.004
						c0,0-0.048,0.14-0.048,0.142c0,0.004-0.036-0.004-0.036-0.004l-0.093-0.119c0,0-0.028-0.06-0.024-0.06
						c0.005,0,0.233,0.004,0.233,0.004l-0.003-0.131c0,0-0.036-0.012-0.053-0.025c0.014-0.005,0.126-0.005,0.126-0.005l-0.048,0.039
						v0.111l0.201,0.003L424.8,519.723z"/>
					<path fill="#CCA300" d="M424.428,519.963c-0.009,0-0.038-0.007-0.038-0.007l-0.009-0.001l-0.102-0.131
						c-0.031-0.062-0.033-0.075-0.025-0.091l0.008-0.016h0.015c0.004,0,0.145,0.001,0.206,0.001l-0.001-0.075
						c-0.013-0.005-0.029-0.014-0.041-0.022l-0.048-0.034l0.053-0.022c0.011-0.004,0.056-0.006,0.133-0.006h0.086l-0.108,0.085
						v0.065l0.172,0.001l0.065-0.019l0.023,0.054l-0.076,0.069l-0.053,0.113l-0.055,0.01l-0.079-0.122l-0.058,0.001
						c-0.015,0.045-0.034,0.102-0.039,0.119v0.026H424.428z M424.408,519.898c0.001,0,0.003,0,0.004,0
						c0.008-0.019,0.019-0.054,0.041-0.117c-0.042-0.001-0.097-0.001-0.135-0.001c0.003,0.003,0.004,0.005,0.005,0.009
						L424.408,519.898z M424.592,519.772l0.062,0.098l0.047-0.097L424.592,519.772z"/>
				</g>
				<polygon id="rect3597" fill="#663D19" points="424.389,519.784 424.408,519.784 424.426,519.803 424.426,519.827 
					424.408,519.846 424.389,519.846 424.372,519.827 424.372,519.803 				"/>
				<polygon id="rect3599" fill="#663D19" points="424.64,519.771 424.661,519.771 424.677,519.79 424.677,519.814 424.661,519.833 
					424.64,519.833 424.624,519.814 424.624,519.79 				"/>
				<path fill="#CCA300" d="M424.263,519.606l-0.02-0.058l0.022-0.009c0.075-0.036,0.135-0.063,0.234-0.075
					c0.102-0.012,0.182,0.006,0.268,0.025l-0.01,0.06c-0.085-0.018-0.159-0.032-0.253-0.022c-0.091,0.01-0.149,0.038-0.22,0.071
					L424.263,519.606z"/>
				<g>
					<path id="path3603_1_" fill="#CCA300" d="M424.3,519.368h-0.069l-0.098-0.12l0.056,0.008l0.064,0.034L424.3,519.368z"/>
					<path fill="#CCA300" d="M424.349,519.4h-0.13l-0.155-0.193l0.135,0.019l0.071,0.038L424.349,519.4z M424.241,519.338h0.009
						l-0.015-0.025l-0.022-0.012L424.241,519.338z"/>
				</g>
				<g>
					<path id="path3605_1_" fill="#CCA300" d="M424.713,519.321l0.155-0.139l-0.051-0.008l-0.058,0.062l-0.069,0.014
						L424.713,519.321z"/>
					<polygon fill="#CCA300" points="424.7,519.373 424.656,519.226 424.747,519.209 424.808,519.144 424.934,519.162 					"/>
				</g>
				<g>
					<path id="path3607_1_" fill="#CCA300" d="M424.621,519.347l-0.243,0.01l0.003-0.03l0.088-0.01l0.011-0.041
						c0,0,0.027-0.003,0.027,0c0,0.004,0.02,0.038,0.02,0.038l0.086,0.018L424.621,519.347z"/>
					<path fill="#CCA300" d="M424.351,519.391l0.006-0.092l0.093-0.01l0.011-0.043l0.018-0.001c0,0,0.013,0,0.022,0
						c0.02,0,0.028,0.01,0.03,0.021c0.003,0.005,0.008,0.014,0.011,0.022l0.086,0.018l0.039,0.073L424.351,519.391z"/>
				</g>
				<g>
					<path id="path3609_1_" fill="#CCA300" d="M424.609,519.24l-0.084,0.004l-0.006-0.054L424.609,519.24z"/>
					<polygon fill="#CCA300" points="424.502,519.275 424.485,519.136 424.62,519.211 424.609,519.271 					"/>
				</g>
				<g>
					<path id="path3611_1_" fill="#CCA300" d="M424.467,519.192l-0.006,0.053l-0.083,0.017L424.467,519.192z"/>
					<polygon fill="#CCA300" points="424.382,519.292 424.365,519.235 424.502,519.127 424.484,519.272 					"/>
				</g>
				<g>
					<path id="path3613_1_" fill="#CCA300" d="M424.004,520.179l0.042-0.124l-0.038-0.084l-0.037,0.126L424.004,520.179z"/>
					<path fill="#CCA300" d="M424.005,520.255l-0.064-0.157l0.061-0.206l0.071,0.161L424.005,520.255z M423.999,520.093l0.003,0.008
						l0.015-0.045l-0.004-0.009L423.999,520.093z"/>
				</g>
				<g>
					<path id="path3615_1_" fill="#CCA300" d="M424.088,520.245l0.051-0.146l-0.098,0.118L424.088,520.245z"/>
					<polygon fill="#CCA300" points="424.1,520.289 423.997,520.226 424.119,520.078 424.163,520.11 					"/>
				</g>
			</g>
			<g>
				<path id="path3617_1_" fill="#E61717" d="M650.722,316.324l-0.036,0.05l0.003,0.041l0.075-0.002
					c0.024-0.006,0.03-0.016,0.035-0.028c0.007-0.014,0.002-0.022,0.004-0.041L650.722,316.324z"/>
				<path fill="#E61717" d="M650.685,316.42l-0.003-0.049l0.039-0.054l0.088,0.022l-0.001,0.005c0,0.007,0,0.012,0,0.016
					c0,0.008,0.001,0.016-0.004,0.027c-0.005,0.011-0.012,0.023-0.038,0.03L650.685,316.42z M650.691,316.375l0.002,0.034
					l0.071-0.002c0.021-0.006,0.026-0.014,0.031-0.025c0.004-0.008,0.003-0.012,0.003-0.02c0-0.004,0-0.009,0-0.014l-0.074-0.019
					L650.691,316.375z"/>
			</g>
			<g>
				<path id="path3619_1_" fill="#E61717" d="M650.901,316.441l-0.033,0.03l-0.003,0.038l0.067,0.006
					c0.024-0.004,0.028-0.008,0.034-0.02c0.008-0.013,0.006-0.013,0.01-0.031L650.901,316.441z"/>
				<path fill="#E61717" d="M650.932,316.521l-0.072-0.006l0.003-0.047l0.037-0.033l0.081,0.025l-0.001,0.005
					c-0.001,0.005-0.001,0.008-0.001,0.011c-0.002,0.01-0.002,0.013-0.01,0.023C650.964,316.511,650.958,316.516,650.932,316.521
					L650.932,316.521z M650.87,316.504l0.062,0.005c0.023-0.004,0.025-0.008,0.03-0.016c0.006-0.01,0.006-0.011,0.007-0.019
					c0-0.002,0-0.004,0.001-0.006l-0.068-0.02l-0.03,0.027L650.87,316.504z"/>
			</g>
			<g>
				<path id="path3621_1_" fill="#E61717" d="M651.198,316.341l-0.035,0.041l0.002,0.032l0.071,0.003
					c0.024-0.007,0.02-0.006,0.028-0.02c0.007-0.014,0.005-0.017,0.007-0.036L651.198,316.341z"/>
				<path fill="#E61717" d="M651.236,316.424l-0.076-0.004l-0.001-0.039l0.038-0.046l0.078,0.023v0.005
					c0,0.005-0.001,0.008-0.001,0.012c0,0.009,0,0.015-0.006,0.026c-0.001,0.002-0.002,0.004-0.002,0.005
					c-0.005,0.011-0.007,0.012-0.028,0.018L651.236,316.424z M651.169,316.409l0.066,0.003h0.001
					c0.018-0.005,0.018-0.005,0.021-0.012c0.001-0.002,0.001-0.003,0.002-0.005c0.005-0.01,0.005-0.013,0.005-0.021
					c0-0.003,0.001-0.005,0.001-0.008l-0.066-0.019l-0.032,0.038L651.169,316.409z"/>
			</g>
			<g>
				<path id="path3623_1_" fill="#E61717" d="M651.406,316.416l-0.04,0.04v0.04l0.075,0.007c0.024-0.006,0.026-0.015,0.032-0.025
					c0.007-0.014,0.004-0.015,0.006-0.034L651.406,316.416z"/>
				<path fill="#E61717" d="M651.441,316.51l-0.08-0.008v-0.048l0.043-0.043l0.08,0.031l-0.001,0.004c0,0.006,0,0.01,0,0.014
					c0,0.008-0.001,0.013-0.006,0.023l-0.002,0.004c-0.005,0.008-0.01,0.017-0.033,0.023H651.441z M651.371,316.491l0.07,0.007
					c0.019-0.005,0.022-0.011,0.026-0.019c0-0.001,0.001-0.002,0.002-0.004c0.004-0.007,0.004-0.01,0.004-0.016
					c0-0.003,0-0.006,0-0.011l-0.067-0.026l-0.036,0.036V316.491z"/>
			</g>
			<g>
				<path id="path3625_1_" fill="#E61717" d="M650.9,315.372l0.142,0.11c0.026-0.027,0.082-0.011,0.104-0.003
					c0.039,0.012,0.067,0.039,0.101,0.046c0.063,0.019,0.138,0.032,0.194,0.024c0.057-0.007,0.105-0.042,0.146-0.067v-0.016h-0.028
					c-0.046,0.019-0.109,0.02-0.157,0.012c-0.049-0.007-0.063-0.032-0.135-0.057l-0.005-0.016c0.088,0.005,0.106,0.002,0.142-0.017
					c0.036-0.011,0.053-0.035,0.073-0.053l-0.001-0.019l-0.026-0.002c-0.034,0.027-0.055,0.031-0.108,0.026
					c-0.048-0.006-0.09-0.037-0.122-0.039c-0.034,0.001-0.033-0.019-0.066-0.02c-0.052-0.006-0.108,0.003-0.157,0.016
					C650.938,315.32,650.93,315.338,650.9,315.372z"/>
				<path fill="#CC0000" d="M651.406,315.556c-0.046,0-0.103-0.01-0.16-0.027c-0.018-0.003-0.034-0.013-0.051-0.023
					c-0.016-0.008-0.032-0.017-0.05-0.023c-0.047-0.015-0.083-0.014-0.1,0.003l-0.003,0.002l-0.151-0.116l0.004-0.005
					c0.004-0.004,0.007-0.009,0.012-0.013c0.022-0.027,0.036-0.042,0.088-0.06c0.056-0.016,0.112-0.022,0.16-0.017
					c0.016,0.001,0.025,0.006,0.033,0.012c0.008,0.005,0.015,0.009,0.031,0.009c0.017,0,0.036,0.008,0.056,0.016
					c0.02,0.009,0.044,0.019,0.068,0.022c0.013,0.001,0.023,0.002,0.032,0.002c0.029,0,0.047-0.006,0.073-0.027l0.001-0.002
					l0.033,0.002v0.027l-0.001,0.002c-0.005,0.004-0.011,0.008-0.016,0.013c-0.015,0.015-0.031,0.031-0.058,0.04
					c-0.028,0.014-0.045,0.019-0.085,0.019c-0.014,0-0.03-0.001-0.053-0.002l0.002,0.006c0.034,0.012,0.055,0.023,0.072,0.033
					c0.019,0.011,0.035,0.019,0.059,0.023c0.018,0.003,0.038,0.004,0.057,0.004c0.027,0,0.066-0.002,0.099-0.016l0.001-0.001h0.033
					v0.024l-0.003,0.002c-0.006,0.004-0.013,0.007-0.019,0.012c-0.037,0.023-0.08,0.049-0.128,0.056
					C651.432,315.555,651.419,315.556,651.406,315.556z M651.086,315.462c0.018,0,0.038,0.004,0.062,0.011
					c0.019,0.006,0.036,0.015,0.051,0.024c0.017,0.009,0.033,0.019,0.05,0.022c0.072,0.021,0.143,0.03,0.193,0.023
					c0.048-0.006,0.089-0.031,0.125-0.055c0.005-0.004,0.012-0.006,0.017-0.011v-0.006h-0.022c-0.034,0.013-0.073,0.016-0.101,0.016
					c-0.02,0-0.039-0.001-0.058-0.004c-0.026-0.004-0.042-0.013-0.063-0.024c-0.018-0.011-0.038-0.022-0.072-0.034l-0.002-0.001
					l-0.01-0.027l0.007,0.001c0.026,0.002,0.045,0.002,0.059,0.002c0.038,0,0.055-0.004,0.082-0.018
					c0.025-0.008,0.041-0.023,0.055-0.037c0.005-0.005,0.01-0.01,0.014-0.013v-0.012l-0.02-0.001
					c-0.028,0.021-0.047,0.028-0.077,0.028c-0.01,0-0.02-0.001-0.033-0.002c-0.025-0.003-0.049-0.013-0.07-0.022
					c-0.019-0.008-0.037-0.015-0.052-0.016l0,0c-0.019,0-0.028-0.005-0.036-0.011c-0.007-0.004-0.015-0.009-0.03-0.01
					c-0.047-0.004-0.102,0.002-0.156,0.017c-0.05,0.017-0.064,0.033-0.085,0.058c-0.002,0.002-0.004,0.005-0.006,0.007l0.135,0.105
					C651.053,315.466,651.067,315.462,651.086,315.462z"/>
			</g>
			<g>
				<path id="path3627_1_" fill="#8E3737" d="M650.928,315.347c0.013,0.004,0.029,0.008,0.039,0.015
					c0.012,0.007,0.009,0.007,0.02,0.018c-0.001-0.013-0.001-0.012-0.008-0.022c-0.007-0.011-0.02-0.02-0.031-0.029L650.928,315.347
					z"/>
				<path fill="#8F3636" d="M650.994,315.393l-0.01-0.008c-0.005-0.004-0.007-0.007-0.01-0.009
					c-0.003-0.003-0.004-0.004-0.011-0.008c-0.011-0.007-0.024-0.011-0.038-0.015l-0.011-0.003l0.032-0.028l0.008,0.007
					c0.009,0.007,0.019,0.015,0.026,0.025c0.008,0.011,0.008,0.011,0.011,0.023L650.994,315.393z M650.938,315.344
					c0.012,0.003,0.022,0.007,0.032,0.013c0.002,0.002,0.004,0.004,0.005,0.005c0-0.001,0-0.001,0-0.001
					c-0.006-0.008-0.016-0.016-0.024-0.023l-0.003-0.003L650.938,315.344z"/>
			</g>
			<g>
				<path id="path3629_1_" fill="#8E3737" d="M651.046,315.466c0-0.015-0.006-0.027-0.011-0.039
					c-0.005-0.013-0.008-0.023-0.018-0.036c0.012,0.004,0.017,0.01,0.027,0.022c0.01,0.013,0.008,0.026,0.011,0.045L651.046,315.466
					z"/>
				<path fill="#8F3636" d="M651.041,315.477v-0.011c0-0.011-0.003-0.02-0.007-0.03c-0.001-0.003-0.002-0.004-0.002-0.007
					c-0.005-0.013-0.008-0.023-0.017-0.034l-0.01-0.014l0.014,0.005c0.014,0.004,0.02,0.012,0.03,0.024
					c0.008,0.013,0.01,0.025,0.011,0.039c0,0.003,0,0.005,0.001,0.008v0.004L651.041,315.477z M651.033,315.407
					c0.002,0.005,0.004,0.011,0.006,0.017c0.001,0.003,0.002,0.005,0.003,0.007c0.003,0.008,0.006,0.016,0.008,0.024l0,0
					c-0.001-0.002-0.001-0.003-0.001-0.005c-0.001-0.014-0.002-0.023-0.008-0.033C651.038,315.412,651.035,315.409,651.033,315.407z
					"/>
			</g>
			<g>
				<path id="path3631_1_" fill="#8E3737" d="M651.073,315.291c0.004,0.01,0.011,0.017,0.016,0.038
					c0.004,0.02,0.006,0.047,0.006,0.047c-0.001-0.014,0.002-0.03,0-0.045c-0.002-0.014-0.008-0.027-0.011-0.041L651.073,315.291z"
					/>
				<path fill="#8F3636" d="M651.091,315.376c0-0.001,0-0.003,0-0.004c-0.001-0.007-0.003-0.027-0.006-0.041
					c-0.004-0.013-0.007-0.02-0.011-0.027c-0.002-0.004-0.003-0.007-0.005-0.011l-0.002-0.006l0.022-0.004l0.001,0.005
					c0.001,0.007,0.002,0.013,0.004,0.02c0.002,0.006,0.005,0.013,0.005,0.021c0.001,0.008,0.001,0.016,0.001,0.024
					c-0.001,0.006-0.001,0.012,0,0.018v0.004L651.091,315.376z"/>
			</g>
			<g>
				<path id="path3633_1_" fill="#8E3737" d="M651.189,315.299l0.006,0.08l0.006-0.075L651.189,315.299z"/>
				<polygon fill="#8F3636" points="651.199,315.379 651.191,315.379 651.183,315.291 651.207,315.3 				"/>
			</g>
			<g>
				<path id="path3635_1_" fill="#8E3737" d="M651.161,315.464c0.003-0.013,0.002-0.026,0.001-0.039
					c-0.002-0.013-0.005-0.024-0.01-0.039c0.012,0.011,0.016,0.025,0.021,0.039C651.174,315.44,651.171,315.454,651.161,315.464z"/>
				<path fill="#8F3636" d="M651.153,315.48l0.004-0.017c0.002-0.012,0.001-0.025,0-0.037c-0.001-0.009-0.003-0.017-0.005-0.027
					c-0.001-0.004-0.002-0.007-0.003-0.011l-0.004-0.018l0.012,0.012c0.011,0.011,0.015,0.023,0.02,0.036l0.003,0.008
					c0,0.019-0.005,0.032-0.015,0.042L651.153,315.48z M651.165,315.417c0.001,0.003,0.001,0.005,0.001,0.007
					c0.001,0.006,0.001,0.011,0.001,0.018c0.001-0.004,0.002-0.01,0.002-0.015l-0.002-0.005
					C651.166,315.42,651.166,315.419,651.165,315.417z"/>
			</g>
			<g>
				<path id="path3637_1_" fill="#8E3737" d="M651.281,315.429c0,0,0.003,0.028-0.002,0.047c-0.005,0.019-0.009,0.02-0.019,0.031
					c0.014-0.011,0.026-0.015,0.03-0.027C651.294,315.46,651.282,315.432,651.281,315.429z"/>
				<path fill="#8F3636" d="M651.263,315.511l-0.006-0.008l0.004-0.004c0.007-0.007,0.01-0.009,0.014-0.025
					c0.004-0.016,0.002-0.038,0.002-0.042l-0.004-0.008h0.012l0.001,0.003c0.002,0.005,0.013,0.033,0.008,0.054
					c-0.003,0.011-0.011,0.016-0.019,0.022C651.271,315.505,651.267,315.507,651.263,315.511z M651.285,315.468
					c0,0.003-0.001,0.006-0.001,0.009c-0.001,0.002-0.001,0.003-0.002,0.005c0.001-0.002,0.002-0.003,0.003-0.005
					C651.285,315.474,651.285,315.471,651.285,315.468z"/>
			</g>
			<g>
				<path id="path3639_1_" fill="#8E3737" d="M651.301,315.403c-0.007,0.002-0.01-0.038-0.015-0.057
					c0.004-0.003,0.007-0.002,0.012,0.007C651.301,315.358,651.3,315.387,651.301,315.403z"/>
				<path fill="#8F3636" d="M651.301,315.409c-0.01,0-0.012-0.016-0.015-0.038c-0.001-0.009-0.002-0.017-0.004-0.024l-0.001-0.004
					l0.003-0.002c0.002-0.002,0.004-0.002,0.005-0.002c0.007,0,0.011,0.008,0.012,0.011c0.003,0.005,0.004,0.016,0.004,0.033
					c0,0.007,0,0.014,0.001,0.019v0.005L651.301,315.409z"/>
			</g>
			<g>
				<path id="path3641_1_" fill="#8E3737" d="M651.384,315.387l0.003-0.033l0.008-0.001c0,0,0,0.027,0,0.029
					C651.396,315.383,651.384,315.388,651.384,315.387z"/>
				<path fill="#8F3636" d="M651.384,315.393h-0.002l-0.003-0.004l0.004-0.04l0.018-0.002v0.035
					C651.401,315.39,651.384,315.393,651.384,315.393z M651.391,315.36l-0.002,0.02c0,0,0.001-0.001,0.002-0.001V315.36z"/>
			</g>
			<g>
				<path id="path3643_1_" fill="#8E3737" d="M651.376,315.476c0.005,0.011,0.015,0.022,0.016,0.033
					c0.001,0.011-0.002,0.016-0.008,0.033l0.013,0.001c0.007-0.014,0.01-0.023,0.008-0.033c-0.001-0.011-0.005-0.021-0.015-0.03
					L651.376,315.476z"/>
				<path fill="#8F3636" d="M651.399,315.549l-0.022-0.002l0.005-0.012c0.005-0.013,0.006-0.017,0.006-0.025
					c-0.001-0.007-0.006-0.015-0.011-0.022c-0.001-0.003-0.003-0.006-0.005-0.009l-0.005-0.011l0.027,0.008
					c0.01,0.008,0.015,0.02,0.016,0.033c0.001,0.012-0.001,0.023-0.008,0.037L651.399,315.549z M651.391,315.537l0.003,0.001
					c0.005-0.011,0.006-0.019,0.005-0.028c-0.001-0.01-0.005-0.019-0.012-0.025h-0.001c0.005,0.007,0.01,0.016,0.01,0.024
					C651.399,315.52,651.396,315.526,651.391,315.537z"/>
			</g>
			<g>
				<path id="path3645_1_" fill="#8E3737" d="M651.475,315.485l0.003,0.047l0.011-0.007l-0.002-0.04H651.475z"/>
				<path fill="#8F3636" d="M651.474,315.54l-0.004-0.06h0.021l0.003,0.049L651.474,315.54z M651.48,315.49l0.002,0.032l0.002-0.001
					l-0.002-0.031H651.48z"/>
			</g>
			<g>
				
					<path id="path3647_1_" sodipodi:nodetypes="cccscscscscccscccccccccsccsccccccccccscsccscccscccccccccccscccccscccsccccccscccccccc" fill="#FFFA00" d="
					M650.89,315.379c-0.032,0.011-0.044,0.031-0.059,0.049l-0.091-0.054c-0.015,0.014-0.02,0.034-0.013,0.056
					c0.006,0.02,0.035,0.053,0.055,0.069c-0.004,0.029-0.012,0.051-0.021,0.076c-0.01,0.029-0.031,0.064-0.032,0.075
					c-0.001,0.013-0.004,0.041,0.013,0.049c0.017,0.007,0.071-0.005,0.089-0.003c-0.003,0.011-0.01,0.031-0.007,0.039
					c0.002,0.008,0.007,0.011,0.022,0.012c-0.004,0.011-0.014,0.024-0.01,0.031c0.012,0.01,0.024,0.008,0.035,0.007
					c-0.006,0.008-0.016,0.02-0.027,0.032c-0.018,0.021-0.039,0.043-0.048,0.056c-0.015,0.024-0.016,0.049,0.013,0.047
					c-0.011,0.014-0.021,0.027-0.019,0.039c0.002,0.014,0.009,0.024,0.029,0.016c-0.012,0.031-0.004,0.06,0,0.094
					c-0.01,0.025-0.005,0.049-0.008,0.078c-0.021,0.014-0.023,0.032-0.037,0.06c-0.013,0.031-0.036,0.039-0.049,0.104l0.084,0.024
					c0.003-0.014,0.014-0.022,0.017-0.036c0.003-0.013,0.002-0.03,0.001-0.045c0.016-0.028,0.05-0.085,0.06-0.116
					c0.018-0.011,0.032-0.018,0.045-0.018c0.014,0,0.022,0.009,0.037,0.018c-0.006,0.026-0.024,0.054-0.025,0.09v0.1
					c-0.003,0.025-0.028,0.025-0.038,0.1l0.075,0.022c0.013-0.025,0.033-0.029,0.037-0.038l0.006-0.104
					c0.01-0.049,0.068-0.089,0.069-0.143c0.021-0.001,0.029,0.002,0.037-0.003c0.012-0.005,0.015-0.012,0.024-0.022
					c0.003,0.016,0.014,0.018,0.023,0.018c0.008,0,0.028-0.015,0.035-0.021c0.005,0.009,0.007,0.017,0.019,0.02
					c0.011,0.003,0.041-0.002,0.054-0.006l-0.06,0.117c-0.003,0.011,0,0.019-0.004,0.031c-0.004,0.012-0.014,0.018-0.018,0.029
					l0.07,0.019l0.011-0.034c0.015-0.007,0.027-0.011,0.035-0.022c0.007-0.011,0.007-0.031,0.012-0.044
					c0.024-0.02,0.062-0.064,0.087-0.099c0.018,0.003,0.044,0.02,0.053,0.046c0.001,0.027,0.003,0.078-0.007,0.113l-0.046,0.083
					l-0.004,0.013l0.07,0.03l0.046-0.04l0.002-0.057c0.022-0.047,0.054-0.073,0.086-0.102c0-0.002,0.003-0.062,0.002-0.064
					c-0.008-0.007-0.014-0.003-0.016-0.015c-0.003-0.012-0.001-0.046,0-0.06c0.005-0.006,0.015-0.014,0.014-0.019
					c-0.012-0.016-0.008-0.056-0.004-0.089c-0.001-0.036,0.041-0.078,0.048-0.1l0.002-0.038c-0.004-0.01-0.011-0.015-0.011-0.023
					c0-0.008,0.008-0.021,0.014-0.03l0.008-0.018l-0.001-0.093c-0.003-0.01-0.011-0.025-0.017-0.027
					c-0.007-0.002-0.018,0.007-0.025,0.018l-0.041,0.035c-0.019,0.007-0.036,0.01-0.07,0l-0.053,0.001
					c-0.028,0.008-0.041,0.011-0.068-0.003h-0.031c-0.01,0.006-0.023,0.016-0.034,0.019c-0.011,0.003-0.024,0.003-0.035-0.001
					c-0.08,0.006-0.06,0.013-0.083,0.019c-0.019-0.004-0.013-0.015-0.084-0.015l-0.029-0.01c-0.036-0.028-0.064-0.072-0.087-0.122
					c0.074-0.025,0.106-0.051,0.128-0.11l-0.105,0.004L650.89,315.379z"/>
				<path fill="#FFC700" d="M650.983,316.46l-0.083-0.025l0.001-0.005c0.006-0.049,0.019-0.067,0.029-0.081
					c0.004-0.007,0.008-0.012,0.01-0.02v-0.099c0-0.025,0.009-0.046,0.016-0.064c0.003-0.008,0.006-0.016,0.008-0.023
					c-0.003-0.002-0.005-0.004-0.007-0.005c-0.008-0.006-0.015-0.011-0.024-0.011c-0.012,0-0.023,0.006-0.04,0.018
					c-0.008,0.022-0.029,0.061-0.059,0.113c0.001,0.013,0.001,0.031-0.002,0.046c-0.002,0.007-0.005,0.013-0.01,0.019
					c-0.003,0.005-0.006,0.011-0.007,0.016l-0.001,0.006l-0.092-0.028l0.001-0.005c0.008-0.045,0.022-0.063,0.034-0.08
					c0.005-0.008,0.011-0.016,0.015-0.025c0.003-0.007,0.006-0.014,0.008-0.02c0.007-0.016,0.014-0.03,0.029-0.041
					c0.001-0.008,0.001-0.015,0.001-0.023c0-0.018,0-0.034,0.007-0.053c-0.001-0.006-0.002-0.011-0.002-0.015
					c-0.004-0.024-0.007-0.047-0.001-0.071c-0.002,0.001-0.003,0.001-0.005,0.001c-0.017,0-0.02-0.018-0.021-0.023
					c-0.001-0.012,0.005-0.024,0.014-0.036c-0.009-0.002-0.013-0.007-0.015-0.012c-0.004-0.011-0.001-0.027,0.01-0.043
					c0.007-0.01,0.021-0.027,0.037-0.045l0.011-0.011c0.006-0.007,0.013-0.015,0.019-0.023l0,0c-0.007,0-0.018-0.001-0.028-0.009
					c-0.005-0.009-0.001-0.019,0.004-0.029c0-0.001,0-0.001,0-0.001c-0.01-0.002-0.016-0.005-0.018-0.015
					c-0.003-0.008,0-0.02,0.005-0.036v-0.001c-0.007,0-0.016,0.001-0.025,0.003c-0.014,0.002-0.029,0.004-0.04,0.004
					c-0.008,0-0.015-0.002-0.019-0.003c-0.019-0.008-0.017-0.038-0.015-0.053v-0.003c0-0.007,0.005-0.018,0.015-0.037
					c0.005-0.013,0.013-0.028,0.017-0.041c0.008-0.022,0.016-0.044,0.02-0.071c-0.019-0.016-0.047-0.048-0.054-0.07
					c-0.008-0.022-0.002-0.045,0.015-0.062l0.002-0.002l0.09,0.054c0.002-0.003,0.004-0.005,0.006-0.007
					c0.013-0.016,0.025-0.032,0.053-0.042l0.002-0.001l0.15,0.116l0.111-0.005l-0.003,0.008c-0.022,0.059-0.053,0.087-0.126,0.111
					c0.026,0.055,0.053,0.091,0.083,0.114l0.026,0.01c0.052,0.001,0.064,0.006,0.073,0.012c0.003,0.001,0.006,0.003,0.011,0.004
					c0.005-0.002,0.007-0.003,0.011-0.005c0.007-0.004,0.015-0.009,0.072-0.013h0.001l0,0c0.008,0.003,0.022,0.004,0.033,0.001
					c0.008-0.002,0.019-0.008,0.027-0.014l0.008-0.004l0.032-0.001h0.001c0.025,0.013,0.039,0.011,0.065,0.002h0.001l0.053-0.001
					h0.001c0.032,0.01,0.051,0.007,0.067,0.001l0.04-0.034c0.004-0.006,0.018-0.022,0.029-0.019
					c0.011,0.003,0.019,0.022,0.021,0.031v0.002l0.001,0.095l-0.011,0.021c-0.004,0.007-0.012,0.019-0.012,0.024
					c0,0.004,0.002,0.006,0.005,0.011c0.002,0.002,0.004,0.005,0.005,0.009l0.001,0.002l-0.003,0.041
					c-0.003,0.008-0.01,0.019-0.018,0.031c-0.014,0.021-0.03,0.046-0.03,0.067c-0.002,0.023-0.008,0.07,0.003,0.085l0.001,0.001
					v0.002c0.001,0.006-0.003,0.012-0.008,0.017c-0.002,0.002-0.003,0.003-0.004,0.005c-0.002,0.015-0.003,0.045-0.001,0.056
					c0.001,0.005,0.002,0.005,0.005,0.007c0.002,0.001,0.005,0.002,0.008,0.005l0.001,0.002c0.001,0.002,0.002,0.003-0.001,0.06
					c0,0.004,0,0.006,0,0.006v0.003l-0.002,0.002c-0.004,0.004-0.008,0.008-0.014,0.013c-0.026,0.025-0.051,0.048-0.07,0.085
					l-0.002,0.059l-0.049,0.044l-0.077-0.033l0.006-0.019l0.046-0.083c0.01-0.031,0.008-0.077,0.007-0.109
					c-0.008-0.021-0.03-0.037-0.047-0.041c-0.024,0.033-0.06,0.076-0.085,0.097c-0.001,0.004-0.002,0.01-0.003,0.014
					c-0.002,0.011-0.004,0.022-0.01,0.03c-0.007,0.01-0.017,0.015-0.029,0.021c-0.002,0.001-0.003,0.001-0.005,0.002l-0.012,0.037
					l-0.08-0.022l0.002-0.006c0.002-0.006,0.006-0.011,0.01-0.015c0.003-0.005,0.006-0.009,0.008-0.013
					c0.002-0.007,0.002-0.012,0.002-0.018c0-0.004,0-0.008,0.001-0.013l0.001-0.002l0.055-0.106
					c-0.016,0.003-0.037,0.005-0.046,0.003c-0.012-0.003-0.016-0.01-0.02-0.018c-0.013,0.011-0.024,0.019-0.033,0.019
					c-0.006,0-0.019,0-0.025-0.014c0,0.001,0,0.001-0.001,0.002c-0.005,0.006-0.01,0.012-0.019,0.015
					c-0.006,0.004-0.013,0.004-0.023,0.004c-0.003,0-0.007-0.001-0.012-0.001c-0.002,0.029-0.02,0.054-0.037,0.078
					c-0.014,0.02-0.028,0.039-0.032,0.06l-0.006,0.106c-0.002,0.005-0.007,0.008-0.013,0.012c-0.007,0.005-0.018,0.012-0.026,0.026
					L650.983,316.46z M650.911,316.426l0.068,0.02c0.007-0.014,0.018-0.021,0.025-0.027c0.004-0.002,0.007-0.005,0.01-0.007
					l0.005-0.102c0.004-0.025,0.02-0.046,0.034-0.067c0.017-0.024,0.035-0.049,0.035-0.076v-0.005h0.01c0.004,0,0.008,0,0.012,0
					c0.01,0,0.015,0,0.019-0.003c0.008-0.003,0.012-0.007,0.017-0.014c0.002-0.002,0.004-0.004,0.006-0.006l0.005-0.006l0.002,0.009
					c0.002,0.011,0.008,0.014,0.019,0.014c0.007,0,0.025-0.015,0.031-0.02l0.004-0.003l0.003,0.004
					c0.001,0.002,0.002,0.003,0.003,0.004c0.003,0.007,0.006,0.012,0.014,0.014c0.001,0.001,0.003,0.001,0.007,0.001
					c0.014,0,0.035-0.004,0.045-0.007l0.012-0.003l-0.067,0.128c-0.001,0.003-0.001,0.006-0.001,0.01c0,0.006,0,0.013-0.003,0.021
					c-0.003,0.007-0.006,0.012-0.01,0.017c-0.002,0.002-0.003,0.004-0.005,0.006l0.059,0.017l0.011-0.032l0.002-0.001
					c0.002-0.002,0.005-0.003,0.007-0.004c0.011-0.005,0.019-0.01,0.024-0.017c0.004-0.006,0.006-0.015,0.007-0.024
					c0.001-0.007,0.002-0.013,0.004-0.018l0.001-0.002l0.001-0.001c0.021-0.019,0.058-0.06,0.086-0.099l0.002-0.002l0.002,0.001
					c0.02,0.004,0.047,0.022,0.056,0.049v0.002c0.002,0.033,0.003,0.081-0.007,0.116l-0.046,0.083l-0.002,0.007l0.064,0.027
					l0.041-0.037l0.002-0.057c0.019-0.041,0.047-0.066,0.073-0.09c0.004-0.004,0.007-0.007,0.012-0.012c0-0.001,0-0.003,0-0.005
					c0.002-0.03,0.002-0.047,0.002-0.054c-0.001-0.001-0.002-0.001-0.004-0.002c-0.005-0.003-0.009-0.005-0.011-0.015
					c-0.003-0.014-0.001-0.051,0-0.062v-0.002l0.001-0.001c0.002-0.002,0.004-0.005,0.006-0.007
					c0.001-0.002,0.004-0.005,0.005-0.007c-0.011-0.017-0.008-0.054-0.004-0.09c0-0.024,0.018-0.051,0.032-0.073
					c0.007-0.011,0.014-0.02,0.016-0.027l0.003-0.036c-0.002-0.003-0.003-0.005-0.004-0.007c-0.003-0.005-0.006-0.01-0.007-0.016
					c0-0.009,0.006-0.019,0.014-0.031l0.001-0.002l0.008-0.016l-0.002-0.091c-0.002-0.011-0.01-0.022-0.013-0.023l0,0
					c-0.005,0-0.014,0.006-0.021,0.016l-0.042,0.037c-0.018,0.006-0.039,0.01-0.073,0l-0.051,0.002
					c-0.026,0.008-0.044,0.01-0.07-0.003l-0.029,0.001l-0.004,0.003c-0.01,0.006-0.02,0.013-0.03,0.015
					c-0.012,0.002-0.027,0.002-0.036-0.001c-0.054,0.004-0.062,0.009-0.068,0.012c-0.003,0.002-0.006,0.004-0.014,0.006h-0.001
					h-0.001c-0.005-0.002-0.01-0.003-0.013-0.005c-0.008-0.004-0.02-0.01-0.07-0.011h-0.002l-0.029-0.01
					c-0.033-0.025-0.062-0.065-0.089-0.125l-0.003-0.006l0.006-0.002c0.07-0.023,0.1-0.047,0.122-0.099l-0.1,0.004l-0.001-0.001
					l-0.148-0.114c-0.023,0.008-0.035,0.022-0.047,0.037c-0.003,0.003-0.005,0.007-0.008,0.01l-0.002,0.003l-0.091-0.054
					c-0.012,0.013-0.015,0.03-0.01,0.047c0.006,0.019,0.034,0.051,0.054,0.067l0.002,0.002v0.004
					c-0.005,0.03-0.014,0.053-0.022,0.077c-0.004,0.013-0.012,0.028-0.018,0.041c-0.005,0.013-0.013,0.028-0.013,0.033v0.002
					c-0.002,0.017-0.003,0.036,0.008,0.041c0.008,0.004,0.034,0.002,0.055-0.002c0.014-0.002,0.026-0.003,0.033-0.003l0.006,0.001
					l-0.002,0.007c0,0.003-0.001,0.005-0.002,0.008c-0.002,0.008-0.006,0.023-0.005,0.028c0.001,0.005,0.003,0.007,0.018,0.008
					l0.006,0.001l-0.002,0.007c-0.001,0.003-0.003,0.006-0.004,0.008c-0.002,0.004-0.007,0.014-0.005,0.015
					c0.004,0.005,0.011,0.006,0.02,0.006c0.002,0,0.005,0,0.008-0.001l0.014-0.001l-0.007,0.01c-0.007,0.01-0.017,0.021-0.028,0.033
					l-0.011,0.012c-0.015,0.017-0.03,0.034-0.036,0.044c-0.008,0.013-0.012,0.025-0.008,0.031c0.002,0.005,0.008,0.006,0.013,0.006
					c0.001,0,0.003,0,0.004,0l0.012-0.001l-0.008,0.011c-0.01,0.012-0.019,0.025-0.018,0.034c0.002,0.012,0.006,0.014,0.012,0.014
					c0.003,0,0.007-0.001,0.012-0.003l0.011-0.004l-0.005,0.012c-0.009,0.025-0.005,0.048-0.002,0.074
					c0.001,0.006,0.002,0.011,0.003,0.017v0.002l-0.001,0.002c-0.006,0.016-0.006,0.031-0.006,0.049c0,0.008,0,0.017-0.001,0.027
					v0.003l-0.002,0.001c-0.015,0.01-0.02,0.021-0.028,0.039c-0.002,0.006-0.005,0.012-0.008,0.02
					c-0.004,0.011-0.011,0.019-0.016,0.027c-0.011,0.016-0.023,0.032-0.031,0.07l0.074,0.022c0.002-0.005,0.004-0.01,0.007-0.014
					c0.003-0.005,0.006-0.011,0.007-0.016c0.003-0.014,0.003-0.031,0.002-0.043l-0.001-0.002l0.001-0.002
					c0.032-0.054,0.053-0.093,0.06-0.115l0.001-0.002l0.001-0.001c0.02-0.013,0.033-0.019,0.047-0.019
					c0.012,0,0.02,0.006,0.03,0.012c0.003,0.002,0.006,0.005,0.01,0.007l0.003,0.002l-0.001,0.004
					c-0.002,0.01-0.005,0.019-0.01,0.029c-0.007,0.019-0.015,0.038-0.015,0.06v0.1c-0.002,0.012-0.006,0.019-0.012,0.026
					C650.929,316.368,650.917,316.384,650.911,316.426z"/>
			</g>
			<g>
				<path id="path3649_1_" fill="#664C00" d="M650.853,315.531l0.03,0.015c0.004,0.005,0.011,0.011,0.016,0.011
					c0.004,0,0.008-0.006,0.013-0.01l0.027-0.016c-0.016-0.003-0.021-0.015-0.038-0.015S650.87,315.527,650.853,315.531z"/>
				<path fill="#664C00" d="M650.899,315.562L650.899,315.562h-0.001c-0.005-0.001-0.013-0.006-0.018-0.012l-0.042-0.021
					l0.015-0.004c0.007-0.001,0.013-0.004,0.019-0.006c0.008-0.004,0.018-0.008,0.029-0.008s0.017,0.004,0.023,0.008
					c0.005,0.003,0.01,0.005,0.016,0.006l0.015,0.003l-0.04,0.025l-0.002,0.001C650.908,315.558,650.904,315.562,650.899,315.562z
					 M650.868,315.532l0.019,0.011c0.003,0.004,0.009,0.009,0.012,0.009v0.006v-0.006c0.002,0,0.004-0.003,0.006-0.005l0.003-0.003
					l0.018-0.011c-0.003-0.001-0.005-0.003-0.007-0.004c-0.005-0.004-0.011-0.007-0.019-0.007c-0.01,0-0.017,0.004-0.025,0.007
					C650.872,315.53,650.87,315.531,650.868,315.532z"/>
			</g>
			<g>
				<path id="path3653_1_" fill="#CCA300" d="M650.908,315.941c0,0.003-0.004,0.005-0.006,0.002
					c-0.003-0.041-0.011-0.07-0.021-0.101C650.893,315.866,650.903,315.905,650.908,315.941z"/>
				<path fill="#CCA300" d="M650.904,315.95c-0.002,0-0.004-0.002-0.006-0.005l-0.001-0.001v-0.001c-0.002-0.04-0.01-0.067-0.02-0.1
					l0.008-0.005c0.012,0.023,0.022,0.062,0.028,0.101C650.913,315.947,650.91,315.95,650.904,315.95z"/>
			</g>
			<g>
				<path id="path3657_1_" fill="#CCA300" d="M651.084,315.946c0.005,0.002,0.014,0.002,0.016-0.003
					c0.003-0.009-0.004-0.018-0.007-0.029c-0.011-0.023-0.016-0.048-0.02-0.059c-0.004-0.003-0.01-0.003-0.009,0.003
					C651.07,315.878,651.079,315.938,651.084,315.946z"/>
				<path fill="#CCA300" d="M651.091,315.952L651.091,315.952c-0.003,0-0.006-0.001-0.008-0.001l-0.002-0.001l-0.001-0.002
					c-0.002-0.004-0.005-0.02-0.011-0.044c-0.003-0.017-0.006-0.035-0.01-0.045c-0.001-0.005,0-0.007,0.001-0.008
					c0.003-0.004,0.01-0.004,0.015-0.001l0.001,0.001v0.002c0.002,0.004,0.003,0.01,0.005,0.016
					c0.004,0.012,0.008,0.027,0.015,0.042c0.001,0.004,0.002,0.007,0.004,0.011c0.003,0.007,0.006,0.015,0.004,0.022
					C651.103,315.95,651.097,315.952,651.091,315.952z M651.087,315.941c0.001,0.001,0.003,0.001,0.004,0.001l0,0
					c0.003,0,0.004-0.001,0.004-0.001c0.001-0.003-0.001-0.007-0.003-0.013c-0.002-0.004-0.003-0.007-0.004-0.012
					c-0.006-0.014-0.012-0.03-0.015-0.042c0-0.001-0.001-0.002-0.001-0.003c0.002,0.01,0.004,0.021,0.006,0.032
					C651.081,315.917,651.085,315.935,651.087,315.941z"/>
			</g>
			<g>
				<path id="path3659_1_" fill="#CCA300" d="M651.179,315.933c0.001,0.005-0.014-0.003-0.016-0.008c0-0.011-0.02-0.091-0.017-0.094
					c0.004-0.003,0.017,0.027,0.021,0.04C651.168,315.88,651.177,315.908,651.179,315.933z"/>
				<path fill="#CCA300" d="M651.178,315.94c-0.005,0-0.016-0.005-0.019-0.012v-0.003c-0.001-0.004-0.004-0.022-0.007-0.038
					c-0.012-0.052-0.012-0.056-0.007-0.06l0.001-0.001h0.002c0.011,0,0.024,0.043,0.024,0.044c0.001,0.004,0.002,0.008,0.003,0.015
					c0.003,0.013,0.007,0.031,0.01,0.048v0.003l-0.002,0.002C651.182,315.939,651.18,315.94,651.178,315.94z M651.167,315.923
					c0.001,0.002,0.004,0.004,0.006,0.005c-0.002-0.015-0.005-0.03-0.007-0.041c-0.002-0.007-0.003-0.012-0.003-0.015
					c-0.002-0.007-0.006-0.016-0.01-0.024c0.001,0.011,0.004,0.025,0.006,0.036C651.164,315.904,651.167,315.917,651.167,315.923z"
					/>
			</g>
			<g>
				<path id="path3661_1_" fill="#CCA300" d="M651.165,316.098c0,0.005,0.012,0.001,0.016-0.003
					c0.013-0.024,0.029-0.048,0.034-0.058c0.002-0.011,0.017-0.074,0.013-0.074c-0.002-0.002-0.014,0.032-0.03,0.065
					C651.181,316.063,651.165,316.095,651.165,316.098z"/>
				<path fill="#CCA300" d="M651.168,316.106L651.168,316.106c-0.003,0-0.005-0.002-0.005-0.003
					c-0.002-0.001-0.002-0.004-0.002-0.005c0-0.003,0.001-0.008,0.033-0.073c0.007-0.015,0.014-0.03,0.019-0.043
					c0.01-0.023,0.011-0.025,0.014-0.025h0.003l0.002,0.003c0.005,0.008-0.013,0.077-0.013,0.079
					c-0.003,0.005-0.007,0.013-0.013,0.023c-0.006,0.011-0.015,0.023-0.021,0.036l-0.001,0.001
					C651.18,316.103,651.174,316.106,651.168,316.106z M651.22,315.99c-0.005,0.013-0.012,0.027-0.019,0.042
					c-0.006,0.015-0.024,0.05-0.03,0.063c0.002-0.001,0.004-0.002,0.006-0.003c0.006-0.013,0.014-0.025,0.02-0.036
					c0.005-0.008,0.011-0.016,0.013-0.021C651.213,316.028,651.217,316.007,651.22,315.99z"/>
			</g>
			<g>
				<path id="path3663_1_" fill="#CCA300" d="M651.262,316.064c-0.004,0.003,0.01-0.056,0.011-0.066
					c0.003-0.016,0.006-0.045,0.012-0.083C651.292,315.967,651.283,316.025,651.262,316.064z"/>
				<path fill="#CCA300" d="M651.262,316.07h-0.002l-0.002-0.003c-0.002-0.004-0.002-0.009,0.006-0.048
					c0.002-0.01,0.003-0.019,0.004-0.022c0.001-0.007,0.002-0.018,0.004-0.03c0.002-0.015,0.004-0.033,0.007-0.053h0.01
					c0.006,0.054-0.002,0.113-0.023,0.153l-0.001,0.001L651.262,316.07z M651.282,315.967c0,0.001,0,0.001,0,0.002
					c-0.002,0.012-0.003,0.023-0.004,0.03c-0.001,0.003-0.002,0.012-0.004,0.022c-0.001,0.001-0.001,0.003-0.001,0.005
					C651.278,316.008,651.281,315.988,651.282,315.967z"/>
			</g>
			<g>
				<path id="path3665_1_" fill="#CCA300" d="M651.32,315.886c-0.003,0.003-0.045-0.076-0.041-0.077
					c0.001-0.003,0.035,0.05,0.04,0.059C651.32,315.872,651.322,315.879,651.32,315.886z"/>
				<path fill="#CCA300" d="M651.319,315.891c-0.01,0-0.045-0.081-0.045-0.082l-0.001-0.006l0.006-0.001
					c0.007,0,0.042,0.062,0.042,0.063c0.004,0.008,0.004,0.016,0.002,0.023l-0.001,0.001l-0.002,0.002H651.319z"/>
			</g>
			<g>
				<path id="path3667_1_" fill="#CCA300" d="M651.417,315.945c-0.003-0.003-0.002-0.028-0.009-0.056
					c-0.005-0.028-0.016-0.055-0.014-0.063c0.002-0.004,0.009-0.002,0.014,0.003c0.002,0.015,0.009,0.074,0.016,0.111
					C651.424,315.945,651.42,315.947,651.417,315.945z"/>
				<path fill="#CCA300" d="M651.419,315.951c-0.001,0-0.003-0.001-0.004-0.002c-0.004-0.003-0.004-0.009-0.005-0.021
					c-0.001-0.011-0.002-0.024-0.005-0.039c-0.002-0.012-0.005-0.022-0.008-0.031c-0.005-0.019-0.007-0.028-0.005-0.035
					c0.003-0.01,0.014-0.007,0.021,0.001l0.001,0.001v0.002c0.001,0.005,0.002,0.016,0.004,0.03
					c0.003,0.024,0.007,0.057,0.012,0.082C651.428,315.947,651.424,315.951,651.419,315.951z M651.399,315.829
					c0,0.005,0.003,0.017,0.006,0.026c0.001,0.004,0.002,0.008,0.003,0.013c0-0.003,0-0.006-0.001-0.01
					c-0.001-0.011-0.002-0.021-0.003-0.027C651.402,315.831,651.4,315.83,651.399,315.829z"/>
			</g>
			<g>
				<path id="path3669_1_" fill="#CCA300" d="M651.485,315.874c-0.003-0.004,0.008,0.027,0.018,0.065
					c0.008,0.037,0.013,0.103,0.015,0.099c0.006-0.005,0.005-0.011,0.015-0.013c0.01-0.003,0.046,0.002,0.044-0.002
					c-0.022-0.023-0.042-0.042-0.057-0.067C651.503,315.932,651.493,315.899,651.485,315.874z"/>
				<path fill="#CCA300" d="M651.518,316.044c-0.005,0-0.005-0.002-0.008-0.032c-0.003-0.022-0.006-0.051-0.012-0.072
					c-0.004-0.02-0.011-0.038-0.014-0.051c-0.005-0.015-0.005-0.016-0.003-0.019l0.001-0.002h0.004l0.003,0.004l0.003,0.011
					c0.008,0.023,0.017,0.049,0.03,0.07c0.013,0.021,0.029,0.037,0.047,0.055l0.013,0.014l-0.001,0.004
					c-0.001,0.004-0.005,0.004-0.011,0.004l0,0c-0.003,0-0.007,0-0.011-0.001c-0.011,0-0.022,0-0.025,0.001
					c-0.004,0.002-0.005,0.003-0.006,0.006c-0.002,0.002-0.003,0.004-0.005,0.006l-0.001,0.002L651.518,316.044z M651.51,315.952
					c0.003,0.019,0.006,0.041,0.008,0.058c0,0.006,0.001,0.012,0.002,0.016c0.002-0.003,0.004-0.006,0.011-0.007
					c0.003-0.001,0.007-0.001,0.013-0.001s0.01,0,0.015,0.001c0.002,0,0.003,0,0.005,0l-0.002-0.002
					c-0.018-0.018-0.035-0.036-0.048-0.057C651.513,315.957,651.511,315.955,651.51,315.952z"/>
			</g>
			<path id="path3673" fill="none" d="M651.58,316.776l0.376-1.544l0.797-0.375l0.422,0.835l-0.605,1.434
				C652.227,316.974,652.032,316.894,651.58,316.776z"/>
			<g>
				<path id="path3677_1_" fill="#FFFFFF" d="M651.828,315.755c0.205,0.05,0.394,0.108,0.584,0.179
					c0.189,0.071,0.369,0.157,0.553,0.248l-0.307,0.723c-0.172-0.076-0.341-0.137-0.509-0.201c-0.17-0.064-0.334-0.12-0.505-0.181
					L651.828,315.755z"/>
				<path fill="#FFFFFF" d="M652.66,316.913l-0.004-0.002c-0.145-0.065-0.292-0.119-0.434-0.172c-0.024-0.01-0.05-0.019-0.075-0.029
					c-0.117-0.044-0.228-0.083-0.347-0.126c-0.052-0.017-0.105-0.037-0.158-0.056l-0.004-0.001l0.188-0.779l0.004,0.002
					c0.21,0.051,0.401,0.11,0.584,0.179c0.205,0.077,0.395,0.169,0.553,0.249l0.005,0.003L652.66,316.913z M651.649,316.52
					c0.052,0.019,0.103,0.037,0.153,0.054c0.119,0.042,0.231,0.082,0.348,0.125c0.026,0.01,0.05,0.019,0.075,0.029
					c0.14,0.053,0.285,0.107,0.43,0.171l0.303-0.713c-0.158-0.079-0.346-0.17-0.549-0.246c-0.181-0.068-0.37-0.126-0.578-0.178
					L651.649,316.52z"/>
			</g>
			<g>
				<path id="path3679_1_" fill="#E61717" d="M651.788,315.926c0,0,0.285,0.074,0.562,0.178c0.277,0.104,0.547,0.238,0.545,0.238
					c-0.002,0-0.174,0.413-0.174,0.413c-0.167-0.077-0.342-0.15-0.515-0.215c-0.174-0.065-0.347-0.127-0.524-0.176L651.788,315.926z
					"/>
				<path fill="#E61717" d="M652.724,316.761l-0.003-0.002c-0.16-0.074-0.334-0.147-0.516-0.215
					c-0.156-0.059-0.338-0.126-0.523-0.176l-0.005-0.001l0.108-0.448l0.004,0.002c0.003,0.001,0.289,0.075,0.562,0.178
					c0.143,0.054,0.284,0.115,0.377,0.157c0.118,0.053,0.155,0.072,0.167,0.08c0.001,0,0.001,0,0.001,0v0.001
					c0.005,0.003,0.005,0.004,0.005,0.005l-0.001,0.004h-0.001c-0.014,0.029-0.128,0.303-0.173,0.411L652.724,316.761z
					 M651.688,316.359c0.184,0.049,0.365,0.116,0.52,0.175c0.18,0.067,0.352,0.139,0.511,0.213c0.124-0.299,0.159-0.38,0.17-0.403
					c-0.034-0.017-0.279-0.137-0.541-0.235c-0.255-0.095-0.52-0.167-0.557-0.177L651.688,316.359z"/>
			</g>
			<g>
				<path id="path3681_1_" fill="#552200" d="M651.811,316.128c0.029-0.019,0.048-0.024,0.063-0.054h0.101l0.001,0.043
					c0.025,0.013,0.04,0.029,0.065,0.043c0.024,0.014,0.06,0.026,0.085,0.04l0.217,0.022c0.03,0.005,0.072,0.02,0.097,0.037
					c0.026,0.018,0.041,0.039,0.055,0.067c0.045,0.019,0.09,0.029,0.136,0.037c0.046,0.008,0.104,0.011,0.149,0.014
					c0.022,0.008,0.022,0.022,0.012,0.035c0,0-0.024,0.039-0.092,0.04c-0.067,0-0.143-0.044-0.176-0.038
					c0.001,0.023,0.036,0.072,0.076,0.091l-0.001,0.113l-0.018,0.02l-0.02-0.015c0.016-0.027,0.011-0.058,0.004-0.085
					c-0.015-0.025-0.017-0.035-0.045-0.037c-0.033-0.007-0.057-0.018-0.1-0.052l-0.015,0.003c-0.01,0.019-0.018,0.032-0.039,0.044
					l-0.042-0.003c0,0-0.099-0.025-0.099-0.027c0-0.002-0.001-0.018,0.001-0.02c0.003-0.001,0.034-0.001,0.036-0.001
					c0.021,0.007,0.065,0.007,0.065,0.007l-0.001-0.043l0.067-0.004c-0.014-0.053-0.018-0.087-0.08-0.099l-0.192,0.005l0.003,0.031
					c-0.049-0.007-0.136-0.008-0.179,0.009c-0.027,0.003-0.064,0.019-0.081,0.019l-0.019-0.006
					c-0.013-0.004-0.013-0.008-0.009-0.022c0.084-0.007,0.097-0.015,0.121-0.028c0.001-0.01-0.008-0.029-0.013-0.03
					c-0.052-0.003-0.093,0.001-0.108-0.002c-0.021-0.007-0.051-0.02-0.051-0.022c0-0.001-0.004-0.023-0.003-0.023
					c0.001,0,0.034,0.011,0.035,0.011c0.035,0.007,0.097,0.004,0.11-0.005l0.001-0.032c-0.001-0.015-0.011-0.029-0.013-0.03
					c-0.002-0.002-0.057-0.01-0.076-0.01C651.807,316.164,651.812,316.146,651.811,316.128z"/>
				<path fill="#2B1100" d="M652.58,316.645l-0.026-0.021l0.003-0.004c0.014-0.024,0.01-0.053,0.003-0.079
					c-0.002-0.003-0.003-0.006-0.005-0.008c-0.01-0.019-0.014-0.025-0.035-0.026c-0.034-0.007-0.058-0.018-0.101-0.052l-0.011,0.002
					c-0.01,0.019-0.019,0.032-0.04,0.043h-0.001l-0.045-0.003c-0.103-0.027-0.103-0.027-0.103-0.032c0-0.015,0-0.022,0.004-0.025
					c0.001-0.001,0.003-0.002,0.038-0.002h0.002c0.016,0.006,0.047,0.006,0.058,0.007l-0.001-0.043l0.065-0.004l-0.001-0.004
					c-0.012-0.047-0.018-0.075-0.073-0.085l-0.186,0.006l0.003,0.032l-0.006-0.001c-0.021-0.003-0.049-0.005-0.075-0.005
					c-0.043,0-0.08,0.005-0.102,0.013c-0.014,0.002-0.029,0.006-0.042,0.01c-0.016,0.004-0.03,0.008-0.039,0.008l-0.001-0.001
					l-0.019-0.006c-0.006-0.002-0.012-0.005-0.014-0.01c-0.002-0.006,0-0.013,0.002-0.02l0.002-0.002l0.002-0.001
					c0.08-0.007,0.093-0.014,0.117-0.027c-0.001-0.006-0.007-0.017-0.01-0.021c-0.013-0.001-0.025-0.001-0.039-0.001
					c-0.012,0-0.021,0-0.031,0c-0.007,0.001-0.014,0.001-0.019,0.001c-0.008,0-0.015-0.001-0.018-0.002
					c-0.014-0.004-0.056-0.019-0.056-0.028c0,0,0-0.002-0.001-0.004c-0.002-0.018-0.002-0.021,0-0.023l0.001-0.002h0.002
					c0.001,0,0.002,0,0.019,0.006c0.007,0.002,0.015,0.004,0.017,0.005c0.013,0.003,0.03,0.004,0.048,0.004l0,0
					c0.024,0,0.048-0.003,0.057-0.007l0.001-0.03c-0.001-0.012-0.009-0.023-0.011-0.024c-0.004-0.001-0.055-0.008-0.074-0.008
					c-0.033-0.006-0.032-0.025-0.032-0.041c0-0.002,0-0.004,0-0.006v-0.003l0.002-0.002c0.006-0.004,0.013-0.007,0.018-0.011
					c0.018-0.011,0.032-0.019,0.042-0.04l0.001-0.002h0.109l0.001,0.045c0.012,0.007,0.02,0.013,0.03,0.02
					c0.01,0.007,0.019,0.015,0.032,0.022c0.012,0.007,0.028,0.013,0.041,0.02c0.015,0.006,0.03,0.013,0.042,0.02l0.218,0.022
					c0.029,0.005,0.071,0.02,0.099,0.038c0.023,0.016,0.04,0.037,0.055,0.067c0.039,0.015,0.082,0.027,0.134,0.036
					c0.047,0.008,0.107,0.012,0.148,0.013h0.001c0.013,0.005,0.019,0.012,0.021,0.021c0.002,0.007-0.001,0.015-0.007,0.024
					c-0.001,0.002-0.027,0.041-0.096,0.041l0,0c-0.037,0-0.075-0.012-0.109-0.023c-0.024-0.008-0.046-0.015-0.062-0.015
					c0.005,0.023,0.037,0.064,0.073,0.082l0.003,0.001l-0.002,0.119L652.58,316.645z M652.566,316.621l0.013,0.01l0.014-0.015
					l0.002-0.107c-0.04-0.02-0.075-0.068-0.077-0.095v-0.005l0.004-0.001c0.017-0.003,0.041,0.005,0.071,0.015
					c0.033,0.011,0.07,0.023,0.105,0.023c0.066-0.001,0.089-0.037,0.089-0.037c0.003-0.004,0.007-0.01,0.006-0.015
					c-0.001-0.004-0.006-0.008-0.015-0.012c-0.041-0.001-0.101-0.005-0.149-0.013c-0.053-0.009-0.097-0.021-0.136-0.037
					l-0.002-0.001l-0.001-0.001c-0.014-0.03-0.031-0.05-0.053-0.065c-0.024-0.016-0.067-0.031-0.094-0.037l-0.22-0.023
					c-0.012-0.007-0.028-0.013-0.042-0.02c-0.015-0.006-0.03-0.013-0.042-0.02c-0.013-0.007-0.022-0.015-0.033-0.022
					c-0.01-0.007-0.019-0.014-0.031-0.021l-0.003-0.001l-0.001-0.042h-0.094c-0.012,0.023-0.027,0.032-0.045,0.042
					c-0.004,0.003-0.01,0.006-0.015,0.009c0,0.002,0,0.003,0,0.004c0,0.016-0.001,0.026,0.023,0.031
					c0.016,0,0.073,0.007,0.077,0.009c0.004,0.003,0.014,0.018,0.016,0.034l-0.002,0.037l-0.002,0.002
					c-0.011,0.006-0.041,0.009-0.064,0.009l0,0c-0.019,0-0.036-0.001-0.05-0.004c0,0.001,0,0.001-0.017-0.005
					c-0.004-0.002-0.008-0.003-0.012-0.004c0,0.004,0.001,0.008,0.001,0.011c0,0.002,0.001,0.002,0.001,0.003
					c0.006,0.004,0.03,0.014,0.049,0.021c0.004,0.001,0.017,0.001,0.035,0.001c0.01-0.001,0.019-0.001,0.031-0.001
					c0.015,0,0.028,0,0.04,0.001h0.001c0.007,0.003,0.018,0.025,0.016,0.036v0.003l-0.002,0.002
					c-0.025,0.013-0.039,0.021-0.12,0.028c0,0.003-0.001,0.006-0.001,0.007s0.001,0.002,0.007,0.005l0.019,0.005
					c0.007-0.001,0.021-0.004,0.035-0.008c0.015-0.004,0.031-0.008,0.043-0.011c0.031-0.012,0.079-0.014,0.104-0.014
					c0.024,0,0.05,0.002,0.071,0.005l-0.003-0.03l0.197-0.006c0.062,0.012,0.069,0.046,0.081,0.093l0.004,0.017l-0.067,0.005
					l0.001,0.043h-0.005c-0.001,0-0.043,0-0.065-0.007c-0.016,0-0.028,0-0.033,0.001c0,0.002,0,0.005,0,0.011
					c0.013,0.003,0.063,0.017,0.096,0.025l0.04,0.003c0.019-0.011,0.028-0.022,0.036-0.04l0.001-0.002l0.019-0.004l0.002,0.001
					c0.042,0.034,0.066,0.044,0.098,0.051c0.025,0.001,0.031,0.011,0.042,0.031c0.001,0.003,0.003,0.005,0.005,0.008v0.002
					C652.575,316.565,652.58,316.595,652.566,316.621z"/>
			</g>
			<g>
				<path id="path3683_1_" fill="#FFFFFF" d="M652.231,316.392c0.03,0.011,0.051,0.014,0.094,0.017l0.067-0.004
					c-0.014-0.053-0.018-0.087-0.08-0.099l-0.192,0.005l0.003,0.031C652.182,316.368,652.209,316.382,652.231,316.392z"/>
				<path fill="#663D19" d="M652.325,316.415L652.325,316.415c-0.042-0.003-0.065-0.006-0.096-0.018l-0.005-0.003
					c-0.021-0.01-0.049-0.023-0.103-0.046l-0.003-0.002l-0.003-0.04l0.197-0.006c0.062,0.012,0.069,0.046,0.081,0.093l0.004,0.017
					L652.325,316.415z M652.128,316.339c0.052,0.023,0.08,0.036,0.1,0.046l0.005,0.002c0.03,0.011,0.051,0.014,0.092,0.018
					l0.06-0.004l-0.001-0.004c-0.012-0.047-0.018-0.075-0.073-0.085l-0.186,0.006L652.128,316.339z"/>
			</g>
			<g>
				<path id="path3685_1_" fill="#000090" d="M648.419,316.776l-0.347-1.508l0.53-0.748l0.742,0.494l0.126,1.598
					C649.091,316.645,648.846,316.687,648.419,316.776z"/>
				<path fill="#000090" d="M648.415,316.784l-0.349-1.517l0.002-0.003l0.532-0.753l0.749,0.499l0.001,0.004l0.126,1.605
					l-0.006,0.001c-0.384,0.033-0.633,0.077-1.05,0.163L648.415,316.784z M648.079,315.27l0.344,1.499
					c0.412-0.085,0.661-0.129,1.04-0.162l-0.125-1.587l-0.735-0.49L648.079,315.27z"/>
			</g>
			<g>
				<path id="path3687_1_" fill="#FFFA00" d="M647.178,315.52l0.127,0.115l-0.024,0.202l0.164-0.08l0.129,0.115l0.018-0.185
					l0.134-0.062l-0.111-0.124l0.025-0.185c0,0-0.161,0.068-0.161,0.067c0-0.002-0.116-0.115-0.117-0.112
					c-0.002,0.001-0.026,0.175-0.026,0.175L647.178,315.52z"/>
				<path fill="#FFC700" d="M647.579,315.885l-0.135-0.12l-0.17,0.082l0.024-0.209l-0.132-0.12l0.163-0.077
					c0.025-0.171,0.026-0.172,0.027-0.175l0.002-0.002h0.003c0.001,0,0.096,0.086,0.118,0.112c0.012-0.004,0.1-0.041,0.158-0.066
					l0.01-0.004l-0.026,0.193l0.116,0.129l-0.14,0.064L647.579,315.885z M647.446,315.749l0.124,0.109l0.017-0.177l0.129-0.059
					l-0.107-0.119l0.024-0.176c-0.15,0.063-0.153,0.063-0.154,0.063h-0.006v-0.004c-0.011-0.012-0.085-0.084-0.108-0.105
					c-0.004,0.028-0.016,0.108-0.024,0.164l-0.001,0.004l-0.15,0.071l0.122,0.11l-0.023,0.194L647.446,315.749z"/>
			</g>
			<path id="path3689" fill="#FFC500" d="M647.181,315.521l0.544,0.103l-0.136,0.065l-0.13-0.109c0,0,0.117,0.287,0.115,0.286
				c-0.001-0.002-0.124-0.106-0.128-0.11l0.012-0.176c0,0-0.174,0.255-0.174,0.253c0-0.001,0.025-0.2,0.025-0.2L647.181,315.521z"/>
			<path id="path3691" fill="#FFC700" d="M647.333,315.449l0.126,0.125l-0.098-0.303L647.333,315.449z"/>
			<path id="path3693" fill="#FFC700" d="M647.477,315.39c0.002,0.001-0.019,0.184-0.018,0.184c0.013-0.02,0.181-0.253,0.179-0.253
				C647.637,315.321,647.48,315.391,647.477,315.39z"/>
			<g>
				<path id="path3695_1_" fill="#FFFA00" d="M652.363,315.263l0.032,0.182l-0.132,0.136l0.169,0.06l0.035,0.184l0.118-0.128
					l0.137,0.052l-0.015-0.177l0.123-0.123c0,0-0.162-0.067-0.161-0.068c0.001-0.002-0.023-0.173-0.026-0.173
					c-0.002,0.001-0.119,0.115-0.119,0.115L652.363,315.263z"/>
				<path fill="#FFC700" d="M652.464,315.836l-0.035-0.19l-0.175-0.062l0.136-0.141l-0.033-0.188l0.167,0.062
					c0.116-0.114,0.118-0.114,0.119-0.114l0.003-0.001l0.002,0.004c0,0.001,0.023,0.137,0.025,0.171
					c0.013,0.007,0.1,0.043,0.158,0.067l0.007,0.004l-0.126,0.127l0.015,0.183l-0.141-0.054L652.464,315.836z M652.273,315.579
					l0.163,0.058l0.033,0.177l0.115-0.124l0.133,0.051l-0.015-0.172l0.119-0.118c-0.155-0.064-0.155-0.065-0.156-0.068l-0.001-0.003
					l0.001-0.001c-0.002-0.016-0.018-0.131-0.024-0.162c-0.017,0.016-0.074,0.072-0.112,0.11l-0.002,0.002l-0.156-0.057l0.031,0.176
					L652.273,315.579z"/>
			</g>
			<path id="path3697" fill="#FFC700" d="M652.364,315.266l0.358,0.481l-0.14-0.051l-0.038-0.179c0,0-0.073,0.306-0.073,0.304
				c0-0.003-0.035-0.173-0.036-0.18l0.108-0.125c0,0-0.276,0.067-0.276,0.065c0.001-0.001,0.133-0.134,0.133-0.134L652.364,315.266z
				"/>
			<path id="path3699" fill="#FFC700" d="M652.523,315.321l0.025,0.189l0.096-0.305L652.523,315.321z"/>
			<path id="path3701" fill="#FFC700" d="M652.667,315.381c0.001,0.003-0.117,0.125-0.116,0.126c0.02-0.005,0.279-0.058,0.278-0.059
				C652.828,315.447,652.669,315.384,652.667,315.381z"/>
			<g>
				<path id="path3703_1_" fill="#E61717" d="M648.075,315.274c0.188-0.106,0.4-0.188,0.623-0.223
					c0.214-0.036,0.429-0.039,0.649-0.039c0,0,0.029,0.393,0.029,0.396c-0.173,0.002-0.302-0.002-0.607,0.044
					c-0.303,0.049-0.428,0.091-0.613,0.174L648.075,315.274z"/>
				<path fill="#E61717" d="M648.152,315.635l-0.083-0.363l0.003-0.003c0.206-0.115,0.416-0.189,0.624-0.223
					c0.191-0.032,0.381-0.038,0.609-0.038h0.045l0.001,0.005c0.005,0.066,0.029,0.394,0.029,0.397v0.006l-0.053,0.001
					c-0.151,0.001-0.282,0.002-0.558,0.043c-0.302,0.049-0.428,0.092-0.612,0.173L648.152,315.635z M648.081,315.277l0.078,0.343
					c0.182-0.081,0.308-0.123,0.609-0.172c0.276-0.042,0.407-0.042,0.559-0.043h0.044c-0.003-0.039-0.019-0.261-0.028-0.386h-0.036
					c-0.227,0-0.418,0.006-0.608,0.038C648.492,315.09,648.284,315.164,648.081,315.277z"/>
			</g>
			<g>
				<path id="path3705_1_" fill="#E61717" d="M648.236,315.97c-0.003,0,0.096,0.416,0.096,0.416
					c0.181-0.053,0.365-0.093,0.549-0.124s0.38-0.047,0.558-0.062l-0.032-0.405c-0.188-0.014-0.402-0.014-0.595,0.016
					C648.618,315.841,648.43,315.895,648.236,315.97z"/>
				<path fill="#E61717" d="M648.328,316.393l-0.002-0.006c-0.098-0.415-0.096-0.418-0.094-0.42l0.002-0.002h0.002
					c0.197-0.077,0.386-0.129,0.575-0.158c0.108-0.017,0.23-0.025,0.361-0.025c0.076,0,0.155,0.003,0.236,0.008h0.004l0.032,0.417
					h-0.005c-0.181,0.014-0.375,0.031-0.558,0.061c-0.193,0.032-0.378,0.074-0.549,0.124L648.328,316.393z M648.241,315.974
					c0.006,0.033,0.058,0.254,0.093,0.405c0.17-0.049,0.353-0.091,0.545-0.123c0.182-0.03,0.373-0.046,0.553-0.06l-0.031-0.396
					c-0.078-0.005-0.156-0.008-0.231-0.008c-0.131,0-0.252,0.009-0.36,0.025C648.624,315.846,648.437,315.898,648.241,315.974z"/>
			</g>
			<g>
				<path id="path3707_1_" fill="#FFFFFF" d="M647.372,317.254h5.258v3.933c-0.134,1.532-1.396,2.677-2.549,2.669
					c-1.245,0.063-2.621-1.126-2.72-2.681L647.372,317.254z"/>
				<path fill="#E61717" d="M649.985,323.88c-0.604,0-1.24-0.283-1.745-0.779c-0.534-0.522-0.853-1.205-0.899-1.925l0.012-3.944
					h5.295v3.955c-0.063,0.725-0.38,1.407-0.892,1.923c-0.485,0.488-1.091,0.768-1.662,0.768h-0.013
					C650.049,323.879,650.017,323.88,649.985,323.88z M647.39,317.277l-0.011,3.898c0.1,1.568,1.454,2.661,2.606,2.661
					c0.032,0,0.064-0.001,0.095-0.002h0.014c1.081,0,2.381-1.088,2.517-2.648v-3.909H647.39z"/>
			</g>
			<g>
				<path id="path3709_1_" fill="#E61717" d="M647.481,317.392h5.038v3.77c-0.128,1.466-1.337,2.565-2.442,2.556
					c-1.193,0.06-2.512-1.078-2.607-2.57L647.481,317.392z"/>
				<path fill="#E61717" d="M649.985,323.741c-0.578,0-1.188-0.272-1.672-0.746c-0.511-0.501-0.817-1.156-0.861-1.844l0.011-3.78
					h5.074v3.791c-0.06,0.694-0.364,1.348-0.856,1.842c-0.464,0.468-1.044,0.735-1.592,0.735h-0.013
					C650.047,323.74,650.016,323.741,649.985,323.741z M647.499,317.414l-0.011,3.734c0.096,1.504,1.393,2.552,2.497,2.552
					c0.03,0,0.061-0.002,0.091-0.003h0.013c1.037,0,2.281-1.042,2.412-2.537v-3.746H647.499z"/>
			</g>
			<rect id="rect3711" x="648.496" y="317.412" fill="#FFFFFF" width="1.002" height="1.257"/>
			<g>
				<path id="path3713_1_" sodipodi:nodetypes="ccccc" fill="#FFFFFF" d="M651.507,321.187v1.244l0.566,0.002
					c0.273-0.476,0.393-0.943,0.418-1.246C652.486,321.187,651.511,321.187,651.507,321.187z"/>
				<path fill="#FFFFFF" d="M652.075,322.439h-0.002l-0.57-0.004l-0.001-1.252h0.005c0,0,0.001-0.001,0.11-0.001
					c0.229,0,0.745,0.001,0.853,0.001h0.025v0.006c-0.013,0.142-0.078,0.652-0.419,1.248L652.075,322.439z M651.512,322.425
					l0.558,0.004c0.333-0.585,0.401-1.084,0.415-1.235h-0.015c-0.108,0-0.624,0-0.853,0c-0.068,0-0.095,0-0.105,0V322.425z"/>
			</g>
			<g>
				<path id="path3715_1_" sodipodi:nodetypes="ccccc" fill="#FFFFFF" d="M650.505,322.444v1.193
					c0.434-0.102,0.789-0.355,0.992-0.524l-0.001-0.668H650.505z"/>
				<path fill="#FFFFFF" d="M650.5,323.644l-0.001-1.205h1.001v0.005l0.002,0.671l-0.002,0.001
					c-0.221,0.186-0.571,0.428-0.994,0.527L650.5,323.644z M650.51,322.449v1.181c0.418-0.1,0.765-0.337,0.983-0.522l-0.002-0.659
					H650.51z"/>
			</g>
			<g>
				<path id="path3717_1_" sodipodi:nodetypes="ccccc" fill="#FFFFFF" d="M648.502,322.444l0.002,0.666
					c0.341,0.281,0.731,0.452,0.991,0.516l-0.003-1.181L648.502,322.444z"/>
				<path fill="#FFFFFF" d="M649.5,323.632l-0.006-0.002c-0.251-0.06-0.644-0.229-0.993-0.516l-0.002-0.001l-0.002-0.675h0.999
					v0.006L649.5,323.632z M648.509,323.107c0.344,0.283,0.731,0.449,0.981,0.511l-0.003-1.169h-0.98L648.509,323.107z"/>
			</g>
			<g>
				<path id="path3719_1_" sodipodi:nodetypes="ccccc" fill="#FFFFFF" d="M647.499,321.187c0.032,0.487,0.219,0.924,0.406,1.229
					l0.585,0.015v-1.244H647.499z"/>
				<path fill="#FFFFFF" d="M648.495,322.435l-0.592-0.013l-0.001-0.003c-0.137-0.223-0.371-0.679-0.407-1.23l0-0.006l1.001-0.001
					V322.435z M647.908,322.411l0.577,0.014l0.001-1.231h-0.981C647.542,321.739,647.772,322.188,647.908,322.411z"/>
			</g>
			<rect id="rect1722" x="647.494" y="318.669" fill="#FFFFFF" width="1.002" height="1.256"/>
			<rect id="rect1724" x="649.498" y="318.669" fill="#FFFFFF" width="1.002" height="1.256"/>
			<rect id="rect1726" x="650.499" y="317.407" fill="#FFFFFF" width="1.002" height="1.256"/>
			<rect id="rect1728" x="651.502" y="318.669" fill="#FFFFFF" width="1.002" height="1.256"/>
			<rect id="rect1730" x="648.496" y="319.925" fill="#FFFFFF" width="1.002" height="1.257"/>
			<rect id="rect1732" x="650.499" y="319.925" fill="#FFFFFF" width="1.002" height="1.257"/>
			<rect id="rect1734" x="649.498" y="321.182" fill="#FFFFFF" width="1.002" height="1.256"/>
			<g>
				<path id="path7132_1_" fill="#CCA300" d="M650.99,315.928c-0.003,0.004-0.011-0.055-0.014-0.065
					c-0.003-0.016-0.011-0.045-0.019-0.082C650.983,315.825,650.995,315.881,650.99,315.928z"/>
				<path fill="#CCA300" d="M650.99,315.933c-0.005,0-0.007-0.005-0.015-0.048c-0.001-0.009-0.002-0.019-0.003-0.022
					c-0.002-0.007-0.004-0.017-0.007-0.03c-0.003-0.014-0.007-0.031-0.012-0.051l0.009-0.004c0.025,0.047,0.038,0.104,0.034,0.151
					l-0.001,0.002l-0.002,0.003H650.99z M650.974,315.83c0,0.001,0,0.001,0,0.001c0.003,0.012,0.005,0.023,0.006,0.03
					c0.001,0.003,0.003,0.012,0.004,0.022c0,0.001,0.001,0.003,0.001,0.005C650.984,315.869,650.981,315.849,650.974,315.83z"/>
			</g>
		</g>
	</g>
</g>
</svg>
