<?xml version="1.0" encoding="utf-8"?>
<!-- Generator: Adobe Illustrator 15.1.0, SVG Export Plug-In . SVG Version: 6.00 Build 0)  -->
<!DOCTYPE svg PUBLIC "-//W3C//DTD SVG 1.1//EN" "http://www.w3.org/Graphics/SVG/1.1/DTD/svg11.dtd">
<svg version="1.1" id="Layer_1" xmlns="http://www.w3.org/2000/svg" xmlns:xlink="http://www.w3.org/1999/xlink" x="0px" y="0px"
	 width="20px" height="14px" viewBox="0 0 20 14" enable-background="new 0 0 20 14" xml:space="preserve">
<path fill="#8D1B3D" d="M0,0h20v14H0V0z"/>
<path fill="#FFFFFF" d="M5.864,14H0V0h5.864l1.602,0.774l-1.602,0.78l1.602,0.779l-1.602,0.78l1.602,0.774l-1.602,0.78l1.602,0.775
	L5.864,6.216L7.466,7L5.864,7.779l1.602,0.773l-1.602,0.78l1.602,0.784l-1.602,0.773l1.602,0.78L5.864,12.45l1.602,0.778L5.864,14z"
	/>
<polygon fill="#8D1B3D" points="6.688,14.031 0,14.031 0,0 6.719,0 6.719,0.25 0.25,0.25 0.25,13.781 6.688,13.781 "/>
</svg>
