<svg height="16" width="24" xmlns="http://www.w3.org/2000/svg"><path d="M0 0h24v16H0V0z" fill="#00008b"/><path fill="#fff" d="M7.041 14.162L6 13.066l-1.041 1.096.207-1.497-1.505-.131 1.299-.772-.837-1.258 1.414.535L6 9.6l.463 1.439 1.414-.535-.837 1.258 1.299.772-1.505.131zM18.496 14.363L18 13.841l-.496.522.099-.713-.717-.063.619-.366-.399-.6.673.254.221-.684.221.684.673-.254-.399.6.619.366-.717.063zM14.496 8.03L14 7.507l-.496.523.099-.713-.717-.062.619-.368-.399-.599.673.255.221-.686.221.686.673-.255-.399.599.619.368-.717.062zM18.496 3.696L18 3.175l-.496.521.099-.713-.717-.062.619-.368-.399-.599.673.255.221-.686.221.686.673-.255-.399.599.619.368-.717.062zM22.051 6.963l-.496-.522-.496.522.1-.713-.718-.063.62-.366-.399-.6.673.254.22-.684.221.684.673-.254-.399.6.62.366-.717.063zM19.208 9.206l.11-.448-.352-.297.46-.034L19.6 8l.174.427.46.034-.352.297.11.448-.392-.243zM5 0h2v2.666h5v2.668H7V8H5V5.334H0V2.666h5V0z"/><path d="M0 0h1.342L12 7.105V8h-1.342L0 .895V0z" fill="#fff"/><path d="M12 0h-1.342L0 7.105V8h1.342L12 .895V0z" fill="#fff"/><path d="M5.4 0h1.2v3.2H12v1.6H6.6V8H5.4V4.8H0V3.2h5.4V0z" fill="red"/><path d="M0 0l4 2.666h-.895L0 .597V0zm12 0h-.895l-4 2.666H8L12 0zM12 8L8 5.334h.895L12 7.403V8zM0 8h.895l4-2.666H4L0 8z" fill="red"/></svg>
